<svg xmlns="http://www.w3.org/2000/svg" width="62" height="80" viewBox="0 0 69 87" fill="none">
<path fill-rule="evenodd" clip-rule="evenodd" d="M0 20.3784V68.2799C0 70.1302 1.08554 71.8087 2.77354 72.5682L32.5689 85.974C33.797 86.5266 35.2029 86.5266 36.431 85.974L66.2264 72.5682C67.9144 71.8087 69 70.1302 69 68.2799V31.0378L0 20.3784Z" fill="#EEAA13"></path>
<path fill-rule="evenodd" clip-rule="evenodd" d="M2.77354 72.5683L32.5689 85.9748C33.797 86.5274 35.2029 86.5274 36.431 85.9748L66.2264 72.5683C67.9144 71.8088 69 70.1304 69 68.2799V63.9292L35.8269 73.6777C34.9607 73.9323 34.0393 73.9323 33.1731 73.6777L0 63.9292V68.2799C0 70.1304 1.08554 71.8088 2.77354 72.5683Z" fill="#BB860F"></path>
<path d="M69.0001 5.64335C69.0067 4.14474 68.3721 2.70571 67.2372 1.64603C66.1023 0.586351 64.5612 -0.00618535 62.9562 4.86975e-05H6.04389C4.43893 -0.00618535 2.89775 0.586351 1.76286 1.64603C0.627968 2.70571 -0.00662437 4.14474 5.2154e-05 5.64335V17.0866L69.0001 27.8244V5.64335Z" fill="#0A141E"></path>
<mask id="mask0_1231_2480" style="mask-type:luminance" maskUnits="userSpaceOnUse" x="11" y="5" width="47" height="10">
<path d="M57.2386 5.48648H11.7614V14.3006H57.2386V5.48648Z" fill="white"></path>
</mask>
<g mask="url(#mask0_1231_2480)">
<path fill-rule="evenodd" clip-rule="evenodd" d="M14.5487 10.0874C14.5903 10.4897 14.78 10.8623 15.0811 11.1332C15.3821 11.4041 15.7731 11.5541 16.1785 11.5541C16.5838 11.5541 16.9749 11.4041 17.2759 11.1332C17.577 10.8623 17.7666 10.4897 17.8083 10.0874C17.8138 10.0323 17.8165 9.97662 17.8165 9.92019C17.8184 9.70441 17.7774 9.49036 17.6959 9.2905C17.6144 9.09055 17.494 8.90872 17.3417 8.75549C17.1895 8.60226 17.0083 8.48061 16.8086 8.39761C16.6089 8.31461 16.3948 8.27189 16.1785 8.27189C15.9621 8.27189 15.748 8.31461 15.5484 8.39761C15.3487 8.48061 15.1675 8.60226 15.0152 8.75549C14.8629 8.90872 14.7426 9.09055 14.661 9.2905C14.5795 9.49036 14.5385 9.70441 14.5404 9.92019C14.5404 9.97639 14.5432 10.0323 14.5487 10.0874ZM11.7614 9.8937C11.7614 9.02205 12.0204 8.16992 12.5058 7.44518C12.9911 6.72041 13.6811 6.15553 14.4882 5.82196C15.2953 5.48839 16.1836 5.40111 17.0404 5.57117C17.8973 5.74122 18.6844 6.16097 19.3022 6.77733C19.9199 7.39368 20.3407 8.17893 20.511 9.03389C20.6815 9.88876 20.594 10.7749 20.2597 11.5802C19.9252 12.3855 19.3591 13.0737 18.6326 13.558C17.9061 14.0423 17.0521 14.3007 16.1784 14.3006C15.5983 14.3006 15.024 14.1866 14.488 13.9651C13.9521 13.7437 13.4652 13.4191 13.055 13.0099C12.6449 12.6007 12.3196 12.1148 12.0976 11.5802C11.8756 11.0455 11.7614 10.4724 11.7614 9.8937Z" fill="white"></path>
<path d="M26.0311 9.86384C26.0311 11.2041 25.1005 11.7883 24.2221 11.7883C23.2391 11.7883 22.481 11.0696 22.481 9.9238C22.481 8.71073 23.2764 7.99945 24.2821 7.99945C25.3256 7.99945 26.0311 8.75557 26.0311 9.86384ZM23.1489 9.90122C23.1489 10.6951 23.6069 11.2942 24.2523 11.2942C24.8828 11.2942 25.3556 10.7026 25.3556 9.88641C25.3556 9.27224 25.0477 8.49355 24.2671 8.49355C23.4867 8.49355 23.1489 9.21251 23.1489 9.90122Z" fill="white"></path>
<path d="M29.9043 10.7174C29.9043 11.0918 29.9117 11.4219 29.9343 11.7059H29.349L29.3115 11.1144H29.2963C29.1739 11.3227 28.9983 11.4949 28.7873 11.6133C28.5764 11.7317 28.3376 11.7921 28.0956 11.7883C27.525 11.7883 26.8421 11.4739 26.8421 10.2002V8.08174H27.5026V10.0885C27.5026 10.7774 27.7128 11.2415 28.3133 11.2415C28.5015 11.2384 28.6845 11.1798 28.8393 11.0732C28.9943 10.9667 29.1142 10.8168 29.184 10.6425C29.2239 10.5347 29.2441 10.4206 29.2439 10.3056V8.08174H29.9043V10.7174Z" fill="white"></path>
<path d="M33.2913 11.0321C33.5528 11.1954 33.8533 11.2862 34.1617 11.2948C34.6421 11.2948 34.8678 11.0553 34.8678 10.7556C34.8678 10.441 34.6802 10.2687 34.1923 10.089C33.5393 9.85694 33.2316 9.49742 33.2316 9.06328C33.2316 8.4792 33.7045 7.99992 34.4851 7.99992C34.7973 7.99686 35.1049 8.0743 35.3783 8.22463L35.2132 8.70391C34.9898 8.56644 34.7326 8.49378 34.4701 8.49409C34.0797 8.49409 33.8621 8.71873 33.8621 8.98843C33.8621 9.28799 34.0797 9.42256 34.5527 9.60236C35.1832 9.84212 35.5057 10.1564 35.5057 10.6957C35.5057 11.3321 35.0104 11.789 34.1473 11.789C33.7907 11.7934 33.439 11.7056 33.1265 11.5342L33.2913 11.0321Z" fill="white"></path>
<path d="M39.7465 11.0321C40.0081 11.1954 40.3087 11.2861 40.6172 11.2948C41.0974 11.2948 41.3233 11.0553 41.3233 10.7556C41.3233 10.441 41.1357 10.2687 40.6479 10.089C39.9948 9.85694 39.6872 9.49742 39.6872 9.06328C39.6872 8.4792 40.1598 7.99992 40.9404 7.99992C41.2525 7.99686 41.5602 8.07422 41.8335 8.22463L41.6685 8.70391C41.4452 8.56644 41.1879 8.49378 40.9255 8.49409C40.535 8.49409 40.3173 8.71873 40.3173 8.98843C40.3173 9.28799 40.535 9.42256 41.008 9.60236C41.6384 9.84212 41.9612 10.1564 41.9612 10.6957C41.9612 11.3321 41.4658 11.789 40.6027 11.789C40.2461 11.7933 39.8945 11.7055 39.582 11.5342L39.7465 11.0321Z" fill="white"></path>
<path d="M48.864 9.06257C48.864 8.68815 48.8565 8.38091 48.8341 8.08174H49.4118L49.4418 8.66558H49.4641C49.5731 8.45937 49.7377 8.28772 49.9393 8.17C50.1409 8.05219 50.3715 7.9931 50.605 7.99921C50.8313 7.99678 51.0526 8.06567 51.2372 8.1961C51.4219 8.3266 51.5605 8.51188 51.6333 8.72562H51.6482C51.7487 8.54174 51.8868 8.38099 52.0536 8.25378C52.2833 8.07806 52.5675 7.988 52.8567 7.99921C53.3372 7.99921 54.0501 8.31382 54.0501 9.57179V11.706H53.4047V9.65409C53.4047 8.95762 53.1495 8.53845 52.6167 8.53845C52.4405 8.54582 52.2709 8.60735 52.1312 8.71457C51.9915 8.82179 51.8883 8.96953 51.8359 9.13742C51.8017 9.24401 51.784 9.35515 51.7835 9.467V11.706H51.1381V9.53433C51.1381 8.95762 50.883 8.53845 50.3799 8.53845C49.9671 8.53845 49.6669 8.86795 49.5618 9.19738C49.5249 9.30076 49.5071 9.41002 49.5094 9.51975V11.706H48.8638L48.864 9.06257Z" fill="white"></path>
<path d="M55.0245 11.0321C55.2862 11.1955 55.5868 11.2862 55.8953 11.2948C56.3753 11.2948 56.6014 11.0553 56.6014 10.7557C56.6014 10.4411 56.4137 10.2687 55.9259 10.0891C55.2721 9.85639 54.9647 9.49687 54.9647 9.06273C54.9647 8.47857 55.4374 7.99929 56.2179 7.99929C56.5301 7.99631 56.8377 8.07367 57.1111 8.224L56.946 8.70328C56.7227 8.56589 56.4654 8.49323 56.203 8.49354C55.8126 8.49354 55.5949 8.7181 55.5949 8.98788C55.5949 9.28744 55.8126 9.42201 56.2856 9.60181C56.9154 9.84157 57.2386 10.1564 57.2386 10.6951C57.2386 11.3315 56.7429 11.7885 55.8802 11.7885C55.5236 11.7928 55.1719 11.7049 54.8594 11.5336L55.0245 11.0321Z" fill="white"></path>
<path d="M38.573 8.1265L37.8524 10.2041C37.7624 10.4667 37.6874 10.8092 37.6198 10.9123H37.6048C37.545 10.8092 37.4548 10.4586 37.372 10.2198L36.5766 8.1265H35.8559L37.1996 11.4438C37.2231 11.4947 37.2382 11.5491 37.2445 11.6048C37.2362 11.6582 37.2185 11.7096 37.1921 11.7567C37.0667 12.0403 36.8763 12.2907 36.6364 12.4875C36.4662 12.6304 36.27 12.7391 36.0586 12.808L36.2382 13.3589C36.5353 13.2869 36.8092 13.1408 37.0343 12.9344C37.4847 12.5452 37.8074 11.9308 38.2802 10.6876L39.271 8.1265H38.573Z" fill="white"></path>
<path d="M48.0236 9.98407C48.0412 9.88703 48.0487 9.78851 48.0463 9.68991C48.0463 9.02189 47.7301 7.98526 46.5414 7.98526C45.4805 7.98526 44.8335 8.85212 44.8335 9.94793C44.8335 11.0438 45.5037 11.7886 46.6241 11.7886C47.0382 11.7922 47.4478 11.7031 47.8227 11.5277L47.6578 11.0263C47.1036 11.2511 46.6898 11.296 46.3806 11.2374C46.2545 11.2113 46.1334 11.1657 46.0215 11.1022C45.5319 10.8027 45.4727 10.1578 45.4659 10.0229C45.4659 10.0141 45.465 9.98352 45.465 9.98352L48.0236 9.98407ZM46.4887 8.4977C47.2336 8.4977 47.4141 9.15811 47.4067 9.57101H45.473C45.5257 9.15811 45.8191 8.4977 46.4887 8.4977Z" fill="white"></path>
<path d="M32.4765 11.0387C32.3558 11.1275 32.2142 11.1837 32.0654 11.202C31.8367 11.1984 31.6791 11.0404 31.6791 10.5978V8.53901H32.61V8.12658H31.6791V6.7962L30.955 7.28813V10.5597C30.955 10.9867 31.0617 11.3084 31.2493 11.503C31.3559 11.6146 31.4905 11.6957 31.6392 11.7378C31.8085 11.7893 31.988 11.7981 32.1616 11.7635C32.3352 11.7289 32.4975 11.652 32.6341 11.5396L32.4765 11.0387Z" fill="white"></path>
<path d="M44.273 11.0387C44.1516 11.1275 44.0094 11.1837 43.86 11.202C43.6315 11.1984 43.472 11.0404 43.472 10.5978V8.53901H44.4032V8.12658H43.472V6.7962L42.7481 7.28813V10.5597C42.7481 10.9867 42.8565 11.3084 43.0442 11.503C43.151 11.6147 43.2859 11.6958 43.4348 11.7379C43.6042 11.7893 43.7837 11.7981 43.9574 11.7635C44.131 11.7289 44.2934 11.652 44.43 11.5396L44.273 11.0387Z" fill="white"></path>
</g>
<path d="M6.86054 50.1622L5.64677 46.2119H5.61854C5.62325 46.306 5.63031 46.447 5.63971 46.6351C5.64912 46.8232 5.65853 47.0255 5.66794 47.2418C5.67735 47.4581 5.68206 47.6509 5.68206 47.8202V50.1622H4.72939V45.1256H6.18309L7.37569 48.9771H7.39686L8.66005 45.1256H10.1138V50.1622H9.11874V47.7779C9.11874 47.618 9.12109 47.4346 9.1258 47.2277C9.13521 47.0208 9.14226 46.8256 9.14697 46.6422C9.15638 46.4541 9.16344 46.313 9.16814 46.219H9.13991L7.84146 50.1622H6.86054ZM14.802 48.2294C14.802 48.8689 14.6326 49.3627 14.2939 49.7107C13.9599 50.0587 13.5035 50.2327 12.9249 50.2327C12.5673 50.2327 12.2474 50.1551 11.9651 49.9999C11.6876 49.8447 11.4688 49.619 11.3089 49.3227C11.1489 49.0218 11.0689 48.6573 11.0689 48.2294C11.0689 47.5898 11.2359 47.0984 11.57 46.7551C11.904 46.4118 12.3627 46.2401 12.946 46.2401C13.3083 46.2401 13.6282 46.3177 13.9058 46.4729C14.1833 46.6281 14.4021 46.8538 14.5621 47.1501C14.722 47.4464 14.802 47.8061 14.802 48.2294ZM12.1416 48.2294C12.1416 48.6103 12.2027 48.8995 12.325 49.097C12.4521 49.2898 12.6567 49.3862 12.939 49.3862C13.2166 49.3862 13.4165 49.2898 13.5388 49.097C13.6658 48.8995 13.7294 48.6103 13.7294 48.2294C13.7294 47.8484 13.6658 47.5639 13.5388 47.3758C13.4165 47.183 13.2142 47.0866 12.9319 47.0866C12.6544 47.0866 12.4521 47.183 12.325 47.3758C12.2027 47.5639 12.1416 47.8484 12.1416 48.2294ZM16.7225 44.8011V46.0497C16.7225 46.1954 16.7178 46.3389 16.7084 46.4799C16.6989 46.621 16.6895 46.7315 16.6801 46.8115H16.7225C16.826 46.6516 16.9647 46.5176 17.1388 46.4094C17.3129 46.2965 17.5387 46.2401 17.8163 46.2401C18.2491 46.2401 18.5996 46.4094 18.8677 46.748C19.1359 47.0819 19.27 47.5757 19.27 48.2294C19.27 48.8877 19.1335 49.3862 18.8607 49.7248C18.5878 50.0634 18.2303 50.2327 17.788 50.2327C17.5058 50.2327 17.2823 50.1833 17.1176 50.0846C16.9577 49.9811 16.826 49.8659 16.7225 49.7389H16.6519L16.4755 50.1622H15.671V44.8011H16.7225ZM17.4775 47.0795C17.2047 47.0795 17.0118 47.1665 16.8989 47.3405C16.786 47.5098 16.7272 47.7661 16.7225 48.1094V48.2223C16.7225 48.5938 16.7766 48.8807 16.8848 49.0829C16.9977 49.2804 17.2 49.3792 17.4917 49.3792C17.7081 49.3792 17.8798 49.2804 18.0068 49.0829C18.1338 48.8807 18.1973 48.5915 18.1973 48.2152C18.1973 47.839 18.1315 47.5569 17.9997 47.3688C17.8727 47.176 17.6987 47.0795 17.4775 47.0795ZM20.6659 44.8011C20.8211 44.8011 20.9552 44.8387 21.0681 44.914C21.181 44.9845 21.2375 45.1185 21.2375 45.316C21.2375 45.5088 21.181 45.6429 21.0681 45.7181C20.9552 45.7934 20.8211 45.831 20.6659 45.831C20.5059 45.831 20.3695 45.7934 20.2566 45.7181C20.1484 45.6429 20.0943 45.5088 20.0943 45.316C20.0943 45.1185 20.1484 44.9845 20.2566 44.914C20.3695 44.8387 20.5059 44.8011 20.6659 44.8011ZM21.1881 46.3107V50.1622H20.1366V46.3107H21.1881ZM23.3382 50.1622H22.2868V44.8011H23.3382V50.1622ZM26.0247 46.2401C26.5563 46.2401 26.9774 46.393 27.2879 46.6986C27.5984 46.9996 27.7536 47.4299 27.7536 47.9895V48.4974H25.2696C25.279 48.7937 25.366 49.0265 25.5307 49.1958C25.7001 49.3651 25.9329 49.4497 26.2293 49.4497C26.474 49.4497 26.6974 49.4262 26.8997 49.3792C27.1067 49.3274 27.3184 49.2498 27.5348 49.1464V49.9576C27.342 50.0517 27.142 50.1198 26.935 50.1622C26.728 50.2092 26.4763 50.2327 26.1799 50.2327C25.7942 50.2327 25.4531 50.1622 25.1567 50.0211C24.8603 49.8753 24.6274 49.659 24.4581 49.3721C24.2887 49.0805 24.204 48.7114 24.204 48.2646C24.204 47.8179 24.2793 47.444 24.4298 47.143C24.5851 46.8421 24.7992 46.6163 25.072 46.4658C25.3449 46.3154 25.6624 46.2401 26.0247 46.2401ZM26.0317 46.9878C25.8247 46.9878 25.6554 47.0537 25.5236 47.1854C25.3919 47.317 25.3143 47.5216 25.2908 47.7991H26.7656C26.7609 47.5686 26.6974 47.3758 26.5751 47.2206C26.4575 47.0654 26.2764 46.9878 26.0317 46.9878ZM34.7016 47.5945C34.7016 48.4457 34.4593 49.0876 33.9747 49.5202C33.4902 49.9482 32.8151 50.1622 31.9494 50.1622H30.524V45.1256H32.1047C32.6316 45.1256 33.0879 45.2196 33.4737 45.4077C33.8642 45.5958 34.1653 45.8733 34.377 46.2401C34.5934 46.6069 34.7016 47.0584 34.7016 47.5945ZM33.5937 47.6227C33.5937 47.0678 33.4713 46.6587 33.2267 46.3953C32.9821 46.132 32.6269 46.0003 32.1611 46.0003H31.5895V49.2804H32.0482C33.0785 49.2804 33.5937 48.7278 33.5937 47.6227ZM37.2508 46.2401C37.7824 46.2401 38.2035 46.393 38.514 46.6986C38.8245 46.9996 38.9797 47.4299 38.9797 47.9895V48.4974H36.4957C36.5052 48.7937 36.5922 49.0265 36.7568 49.1958C36.9262 49.3651 37.1591 49.4497 37.4555 49.4497C37.7001 49.4497 37.9236 49.4262 38.1259 49.3792C38.3329 49.3274 38.5446 49.2498 38.761 49.1464V49.9576C38.5681 50.0517 38.3682 50.1198 38.1612 50.1622C37.9542 50.2092 37.7025 50.2327 37.4061 50.2327C37.0203 50.2327 36.6792 50.1622 36.3828 50.0211C36.0865 49.8753 35.8536 49.659 35.6842 49.3721C35.5148 49.0805 35.4302 48.7114 35.4302 48.2646C35.4302 47.8179 35.5054 47.444 35.656 47.143C35.8112 46.8421 36.0253 46.6163 36.2982 46.4658C36.571 46.3154 36.8886 46.2401 37.2508 46.2401ZM37.2579 46.9878C37.0509 46.9878 36.8815 47.0537 36.7498 47.1854C36.6181 47.317 36.5404 47.5216 36.5169 47.7991H37.9918C37.9871 47.5686 37.9236 47.3758 37.8013 47.2206C37.6836 47.0654 37.5025 46.9878 37.2579 46.9878ZM40.6119 50.1622L39.1441 46.3107H40.245L40.9859 48.5045C41.0283 48.6361 41.0612 48.7725 41.0847 48.9136C41.1082 49.0547 41.1247 49.1817 41.1341 49.2945H41.1623C41.1765 49.0406 41.2282 48.7772 41.3176 48.5045L42.0586 46.3107H43.1594L41.6916 50.1622H40.6119ZM45.3 46.2401C45.8316 46.2401 46.2527 46.393 46.5632 46.6986C46.8737 46.9996 47.0289 47.4299 47.0289 47.9895V48.4974H44.5449C44.5543 48.7937 44.6414 49.0265 44.806 49.1958C44.9754 49.3651 45.2083 49.4497 45.5046 49.4497C45.7493 49.4497 45.9727 49.4262 46.175 49.3792C46.382 49.3274 46.5937 49.2498 46.8102 49.1464V49.9576C46.6173 50.0517 46.4173 50.1198 46.2103 50.1622C46.0033 50.2092 45.7516 50.2327 45.4552 50.2327C45.0695 50.2327 44.7284 50.1622 44.432 50.0211C44.1356 49.8753 43.9027 49.659 43.7334 49.3721C43.564 49.0805 43.4793 48.7114 43.4793 48.2646C43.4793 47.8179 43.5546 47.444 43.7051 47.143C43.8604 46.8421 44.0745 46.6163 44.3473 46.4658C44.6202 46.3154 44.9377 46.2401 45.3 46.2401ZM45.307 46.9878C45.1 46.9878 44.9307 47.0537 44.799 47.1854C44.6672 47.317 44.5896 47.5216 44.5661 47.7991H46.041C46.0363 47.5686 45.9727 47.3758 45.8504 47.2206C45.7328 47.0654 45.5517 46.9878 45.307 46.9878ZM48.933 50.1622H47.8815V44.8011H48.933V50.1622ZM53.5318 48.2294C53.5318 48.8689 53.3624 49.3627 53.0237 49.7107C52.6897 50.0587 52.2333 50.2327 51.6547 50.2327C51.2971 50.2327 50.9772 50.1551 50.6949 49.9999C50.4174 49.8447 50.1986 49.619 50.0386 49.3227C49.8787 49.0218 49.7987 48.6573 49.7987 48.2294C49.7987 47.5898 49.9657 47.0984 50.2997 46.7551C50.6338 46.4118 51.0925 46.2401 51.6758 46.2401C52.0381 46.2401 52.358 46.3177 52.6356 46.4729C52.9131 46.6281 53.1319 46.8538 53.2918 47.1501C53.4518 47.4464 53.5318 47.8061 53.5318 48.2294ZM50.8713 48.2294C50.8713 48.6103 50.9325 48.8995 51.0548 49.097C51.1819 49.2898 51.3865 49.3862 51.6688 49.3862C51.9463 49.3862 52.1463 49.2898 52.2686 49.097C52.3956 48.8995 52.4591 48.6103 52.4591 48.2294C52.4591 47.8484 52.3956 47.5639 52.2686 47.3758C52.1463 47.183 51.944 47.0866 51.6617 47.0866C51.3841 47.0866 51.1819 47.183 51.0548 47.3758C50.9325 47.5639 50.8713 47.8484 50.8713 48.2294ZM56.5461 46.2401C56.9789 46.2401 57.3294 46.4094 57.5975 46.748C57.8657 47.0819 57.9998 47.5757 57.9998 48.2294C57.9998 48.8877 57.861 49.3862 57.5834 49.7248C57.3058 50.0634 56.9506 50.2327 56.5178 50.2327C56.2403 50.2327 56.0191 50.1833 55.8545 50.0846C55.6898 49.9811 55.5557 49.8659 55.4522 49.7389H55.3958C55.4334 49.9364 55.4522 50.1245 55.4522 50.3032V51.8551H54.4008V46.3107H55.2547L55.4028 46.8115H55.4522C55.5557 46.6563 55.6945 46.5223 55.8686 46.4094C56.0427 46.2965 56.2685 46.2401 56.5461 46.2401ZM56.2073 47.0795C55.9345 47.0795 55.7416 47.1665 55.6287 47.3405C55.5158 47.5098 55.457 47.7661 55.4522 48.1094V48.2223C55.4522 48.5938 55.5064 48.8807 55.6146 49.0829C55.7275 49.2804 55.9298 49.3792 56.2214 49.3792C56.4614 49.3792 56.6378 49.2804 56.7507 49.0829C56.8683 48.8807 56.9271 48.5915 56.9271 48.2152C56.9271 47.4581 56.6872 47.0795 56.2073 47.0795ZM60.4542 46.2401C60.9858 46.2401 61.4069 46.393 61.7174 46.6986C62.0279 46.9996 62.1831 47.4299 62.1831 47.9895V48.4974H59.6991C59.7085 48.7937 59.7956 49.0265 59.9602 49.1958C60.1296 49.3651 60.3625 49.4497 60.6588 49.4497C60.9035 49.4497 61.1269 49.4262 61.3292 49.3792C61.5362 49.3274 61.7479 49.2498 61.9644 49.1464V49.9576C61.7715 50.0517 61.5715 50.1198 61.3645 50.1622C61.1575 50.2092 60.9058 50.2327 60.6095 50.2327C60.2237 50.2327 59.8826 50.1622 59.5862 50.0211C59.2898 49.8753 59.0569 49.659 58.8876 49.3721C58.7182 49.0805 58.6335 48.7114 58.6335 48.2646C58.6335 47.8179 58.7088 47.444 58.8594 47.143C59.0146 46.8421 59.2287 46.6163 59.5015 46.4658C59.7744 46.3154 60.0919 46.2401 60.4542 46.2401ZM60.4613 46.9878C60.2543 46.9878 60.0849 47.0537 59.9532 47.1854C59.8214 47.317 59.7438 47.5216 59.7203 47.7991H61.1952C61.1905 47.5686 61.1269 47.3758 61.0046 47.2206C60.887 47.0654 60.7059 46.9878 60.4613 46.9878ZM65.1881 46.2401C65.2398 46.2401 65.301 46.2425 65.3715 46.2472C65.4421 46.2519 65.4986 46.2589 65.5409 46.2683L65.4633 47.2559C65.4256 47.2465 65.3763 47.2394 65.3151 47.2347C65.2539 47.2253 65.1998 47.2206 65.1528 47.2206C64.974 47.2206 64.8023 47.2535 64.6376 47.3194C64.473 47.3805 64.3389 47.4816 64.2354 47.6227C64.1366 47.7638 64.0872 47.9566 64.0872 48.2011V50.1622H63.0357V46.3107H63.8332L63.9884 46.9596H64.0378C64.1507 46.7621 64.306 46.5928 64.5036 46.4517C64.7011 46.3107 64.9293 46.2401 65.1881 46.2401Z" fill="white"></path>
<path d="M23.6359 31.3513L22.3107 33.8903L19.4393 34.3319L21.5376 36.319L21.0959 39.1892L23.6359 37.8645L26.1759 39.1892L25.7342 36.319L27.722 34.3319L24.8507 33.8903L23.6359 31.3513Z" fill="white"></path>
<path d="M33.5751 31.3513L32.2498 33.8903L29.3786 34.3319L31.4768 36.319L31.035 39.1892L33.5751 37.8645L36.1151 39.1892L35.6733 36.319L37.6611 34.3319L34.7899 33.8903L33.5751 31.3513Z" fill="white"></path>
<path d="M43.5142 31.3513L42.189 33.8903L39.3177 34.3319L41.4159 36.319L40.9742 39.1892L43.5142 37.8645L46.0542 39.1892L45.6125 36.319L47.6004 34.3319L44.729 33.8903L43.5142 31.3513Z" fill="#BB860F"></path>
<path d="M19.5353 60.5575C19.5353 61.0042 19.373 61.3546 19.0484 61.6085C18.7238 61.8625 18.2792 61.9895 17.7147 61.9895C17.4371 61.9895 17.1783 61.9659 16.9384 61.9189C16.6985 61.8766 16.4938 61.8131 16.3245 61.7285V61.0089C16.5126 61.0936 16.7338 61.1712 16.9878 61.2417C17.2418 61.3076 17.5006 61.3405 17.7641 61.3405C18.1028 61.3405 18.3568 61.2746 18.5262 61.143C18.6956 61.0113 18.7802 60.8349 18.7802 60.6139C18.7802 60.4587 18.7426 60.3294 18.6673 60.2259C18.5921 60.1178 18.4697 60.019 18.3004 59.9297C18.1357 59.8356 17.9193 59.7369 17.6511 59.6334C17.4065 59.5393 17.1877 59.4288 16.9949 59.3019C16.802 59.1749 16.6514 59.0173 16.5432 58.8292C16.435 58.6411 16.3809 58.4107 16.3809 58.1379C16.3809 57.7241 16.5315 57.3996 16.8326 57.1645C17.1336 56.9293 17.5288 56.8118 18.0181 56.8118C18.291 56.8118 18.5427 56.84 18.7732 56.8964C19.0084 56.9529 19.2319 57.0258 19.4436 57.1151L19.2036 57.7429C19.0108 57.663 18.8132 57.5971 18.6109 57.5454C18.4133 57.4937 18.2086 57.4678 17.9969 57.4678C17.7194 57.4678 17.5077 57.5289 17.3618 57.6512C17.216 57.7735 17.1431 57.9334 17.1431 58.1309C17.1431 58.2861 17.1783 58.4178 17.2489 58.5259C17.3195 58.6294 17.4324 58.7258 17.5876 58.8151C17.7429 58.8998 17.9475 58.9915 18.2016 59.0902C18.4839 59.2031 18.7238 59.323 18.9214 59.45C19.1237 59.5723 19.2766 59.7228 19.3801 59.9015C19.4836 60.0755 19.5353 60.2941 19.5353 60.5575ZM21.9333 56.8823C22.5919 56.8823 23.0718 57.0163 23.3729 57.2844C23.674 57.5478 23.8245 57.9169 23.8245 58.3919C23.8245 58.6741 23.761 58.9374 23.634 59.1819C23.5117 59.4265 23.3047 59.6264 23.013 59.7815C22.7213 59.932 22.3261 60.0073 21.8274 60.0073H21.2841V61.9189H20.5219V56.8823H21.9333ZM21.8768 57.5242H21.2841V59.3653H21.7428C22.1709 59.3653 22.4931 59.2948 22.7096 59.1537C22.9307 59.0079 23.0412 58.7634 23.0412 58.4201C23.0412 58.1191 22.9471 57.8958 22.7589 57.75C22.5708 57.5995 22.2767 57.5242 21.8768 57.5242ZM27.6797 61.9189H24.8428V56.8823H27.6797V57.5313H25.605V58.9703H27.5526V59.6122H25.605V61.2629H27.6797V61.9189ZM30.9233 57.4678C30.4246 57.4678 30.0318 57.6418 29.7448 57.9898C29.4625 58.3331 29.3214 58.8057 29.3214 59.4077C29.3214 60.0049 29.4531 60.4752 29.7166 60.8185C29.98 61.1618 30.3799 61.3334 30.9162 61.3334C31.1326 61.3334 31.3396 61.3146 31.5372 61.277C31.7395 61.2347 31.9442 61.1806 32.1512 61.1148V61.7708C31.9536 61.846 31.7513 61.9001 31.5443 61.933C31.3373 61.9706 31.0974 61.9895 30.8245 61.9895C30.307 61.9895 29.8765 61.8836 29.5331 61.672C29.1944 61.4557 28.9403 61.1547 28.771 60.7691C28.6063 60.3788 28.524 59.9226 28.524 59.4006C28.524 58.8927 28.6157 58.446 28.7992 58.0604C28.9874 57.67 29.2602 57.3643 29.6178 57.1433C29.9753 56.9223 30.4129 56.8118 30.9304 56.8118C31.1844 56.8118 31.4314 56.84 31.6713 56.8964C31.916 56.9482 32.1394 57.0234 32.3417 57.1222L32.0594 57.757C31.8948 57.6818 31.7184 57.6159 31.5302 57.5595C31.342 57.4984 31.1397 57.4678 30.9233 57.4678ZM34.7891 61.9189H32.8344V61.4816L33.4342 61.3052V57.5031L32.8344 57.3197V56.8823H34.7891V57.3197L34.1963 57.5031V61.3052L34.7891 61.4816V61.9189ZM38.8715 61.9189L38.3352 60.4658H36.3875L35.8512 61.9189H35.0609L36.9733 56.8612H37.7636L39.669 61.9189H38.8715ZM38.1235 59.8027L37.6154 58.3848C37.5966 58.3331 37.5707 58.2555 37.5378 58.1521C37.5049 58.0486 37.4719 57.9404 37.439 57.8276C37.4061 57.7147 37.3802 57.623 37.3614 57.5525C37.3237 57.6982 37.2814 57.8534 37.2344 58.018C37.1873 58.1826 37.1497 58.3049 37.1215 58.3848L36.6134 59.8027H38.1235ZM40.3485 61.9189V56.8823H41.1107V61.2629H43.263V61.9189H40.3485ZM45.6844 61.9189H43.7297V61.4816L44.3295 61.3052V57.5031L43.7297 57.3197V56.8823H45.6844V57.3197L45.0917 57.5031V61.3052L45.6844 61.4816V61.9189ZM49.5199 60.5575C49.5199 61.0042 49.3576 61.3546 49.033 61.6085C48.7084 61.8625 48.2638 61.9895 47.6992 61.9895C47.4217 61.9895 47.1629 61.9659 46.923 61.9189C46.6831 61.8766 46.4784 61.8131 46.309 61.7285V61.0089C46.4972 61.0936 46.7183 61.1712 46.9724 61.2417C47.2264 61.3076 47.4852 61.3405 47.7486 61.3405C48.0874 61.3405 48.3414 61.2746 48.5108 61.143C48.6801 61.0113 48.7648 60.8349 48.7648 60.6139C48.7648 60.4587 48.7272 60.3294 48.6519 60.2259C48.5766 60.1178 48.4543 60.019 48.2849 59.9297C48.1203 59.8356 47.9039 59.7369 47.6357 59.6334C47.3911 59.5393 47.1723 59.4288 46.9794 59.3019C46.7865 59.1749 46.636 59.0173 46.5278 58.8292C46.4196 58.6411 46.3655 58.4107 46.3655 58.1379C46.3655 57.7241 46.516 57.3996 46.8171 57.1645C47.1182 56.9293 47.5134 56.8118 48.0027 56.8118C48.2755 56.8118 48.5272 56.84 48.7578 56.8964C48.993 56.9529 49.2164 57.0258 49.4282 57.1151L49.1882 57.7429C48.9953 57.663 48.7977 57.5971 48.5954 57.5454C48.3979 57.4937 48.1932 57.4678 47.9815 57.4678C47.7039 57.4678 47.4922 57.5289 47.3464 57.6512C47.2006 57.7735 47.1276 57.9334 47.1276 58.1309C47.1276 58.2861 47.1629 58.4178 47.2335 58.5259C47.3041 58.6294 47.417 58.7258 47.5722 58.8151C47.7275 58.8998 47.9321 58.9915 48.1862 59.0902C48.4684 59.2031 48.7084 59.323 48.9059 59.45C49.1082 59.5723 49.2611 59.7228 49.3646 59.9015C49.4681 60.0755 49.5199 60.2941 49.5199 60.5575ZM52.2001 61.9189H51.438V57.5384H49.9279V56.8823H53.7103V57.5384H52.2001V61.9189Z" fill="white"></path>
</svg>