<svg xmlns="http://www.w3.org/2000/svg" width="62" height="80" viewBox="0 0 69 87" fill="none">
<path fill-rule="evenodd" clip-rule="evenodd" d="M0 20.3784V68.2799C0 70.1302 1.08554 71.8087 2.77354 72.5682L32.5689 85.974C33.797 86.5266 35.2029 86.5266 36.431 85.974L66.2264 72.5682C67.9144 71.8087 69 70.1303 69 68.2799V31.0378L0 20.3784Z" fill="#DB2400"></path>
<path fill-rule="evenodd" clip-rule="evenodd" d="M2.77354 72.5683L32.5689 85.9748C33.797 86.5274 35.2029 86.5274 36.431 85.9748L66.2264 72.5683C67.9144 71.8088 69 70.1304 69 68.28V63.9293L35.8269 73.6777C34.9607 73.9323 34.0393 73.9323 33.1731 73.6777L0 63.9293V68.28C0 70.1304 1.08554 71.8088 2.77354 72.5683Z" fill="#BB1F00"></path>
<path d="M69.0001 5.64335C69.0067 4.14474 68.3721 2.70571 67.2372 1.64603C66.1024 0.586351 64.5612 -0.00618535 62.9562 4.86975e-05H6.04389C4.43893 -0.00618535 2.89775 0.586351 1.76286 1.64603C0.627968 2.70571 -0.00662437 4.14474 5.2154e-05 5.64335V17.0866L69.0001 27.8244V5.64335Z" fill="#0A141E"></path>
<mask id="mask0_149_1471" style="mask-type:luminance" maskUnits="userSpaceOnUse" x="11" y="5" width="47" height="10">
<path d="M57.2386 5.48648H11.7614V14.3006H57.2386V5.48648Z" fill="white"></path>
</mask>
<g mask="url(#mask0_149_1471)">
<path fill-rule="evenodd" clip-rule="evenodd" d="M14.5486 10.0874C14.5903 10.4897 14.7799 10.8623 15.081 11.1332C15.382 11.4041 15.7731 11.5541 16.1785 11.5541C16.5838 11.5541 16.9749 11.4041 17.2759 11.1332C17.577 10.8623 17.7666 10.4897 17.8083 10.0874C17.8137 10.0323 17.8165 9.97662 17.8165 9.92019C17.8184 9.70441 17.7774 9.49036 17.6959 9.2905C17.6144 9.09055 17.494 8.90872 17.3417 8.75549C17.1895 8.60226 17.0083 8.48061 16.8085 8.39761C16.6089 8.31461 16.3948 8.27189 16.1785 8.27189C15.9621 8.27189 15.748 8.31461 15.5484 8.39761C15.3486 8.48061 15.1674 8.60226 15.0152 8.75549C14.8629 8.90872 14.7425 9.09055 14.661 9.2905C14.5795 9.49036 14.5385 9.70441 14.5404 9.92019C14.5404 9.97639 14.5432 10.0323 14.5486 10.0874ZM11.7614 9.8937C11.7614 9.02205 12.0204 8.16992 12.5058 7.44518C12.9911 6.72041 13.681 6.15553 14.4882 5.82196C15.2953 5.48839 16.1835 5.40111 17.0404 5.57117C17.8973 5.74122 18.6844 6.16097 19.3022 6.77733C19.9199 7.39368 20.3406 8.17893 20.511 9.03389C20.6815 9.88876 20.594 10.7749 20.2596 11.5802C19.9252 12.3855 19.359 13.0737 18.6326 13.558C17.9061 14.0423 17.0521 14.3007 16.1784 14.3006C15.5983 14.3006 15.024 14.1866 14.488 13.9651C13.9521 13.7437 13.4652 13.4191 13.055 13.0099C12.6449 12.6007 12.3195 12.1148 12.0976 11.5802C11.8756 11.0455 11.7614 10.4724 11.7614 9.8937Z" fill="white"></path>
<path d="M26.0311 9.86384C26.0311 11.2041 25.1004 11.7883 24.2221 11.7883C23.2391 11.7883 22.481 11.0696 22.481 9.9238C22.481 8.71073 23.2763 7.99945 24.2821 7.99945C25.3256 7.99945 26.0311 8.75557 26.0311 9.86384ZM23.1488 9.90122C23.1488 10.6951 23.6068 11.2942 24.2523 11.2942C24.8828 11.2942 25.3556 10.7026 25.3556 9.88641C25.3556 9.27224 25.0477 8.49355 24.2671 8.49355C23.4866 8.49355 23.1488 9.21251 23.1488 9.90122Z" fill="white"></path>
<path d="M29.9043 10.7175C29.9043 11.0918 29.9117 11.4219 29.9343 11.7059H29.349L29.3115 11.1144H29.2963C29.1739 11.3227 28.9983 11.4949 28.7873 11.6133C28.5764 11.7318 28.3376 11.7921 28.0956 11.7883C27.525 11.7883 26.8421 11.4739 26.8421 10.2002V8.08176H27.5026V10.0885C27.5026 10.7774 27.7128 11.2415 28.3133 11.2415C28.5015 11.2384 28.6845 11.1798 28.8393 11.0732C28.9943 10.9667 29.1142 10.8168 29.184 10.6425C29.2239 10.5347 29.2441 10.4206 29.2439 10.3057V8.08176H29.9043V10.7175Z" fill="white"></path>
<path d="M33.2913 11.032C33.5528 11.1954 33.8532 11.2862 34.1617 11.2948C34.642 11.2948 34.8678 11.0552 34.8678 10.7556C34.8678 10.441 34.6801 10.2687 34.1923 10.089C33.5392 9.85692 33.2315 9.4974 33.2315 9.06326C33.2315 8.47919 33.7045 7.9999 34.4851 7.9999C34.7972 7.99685 35.1048 8.07428 35.3782 8.22461L35.2132 8.7039C34.9898 8.56642 34.7325 8.49377 34.4701 8.49408C34.0797 8.49408 33.862 8.71871 33.862 8.98841C33.862 9.28797 34.0797 9.42255 34.5526 9.60235C35.1831 9.84211 35.5056 10.1564 35.5056 10.6957C35.5056 11.3321 35.0103 11.789 34.1473 11.789C33.7907 11.7933 33.439 11.7056 33.1265 11.5341L33.2913 11.032Z" fill="white"></path>
<path d="M39.7465 11.0321C40.008 11.1954 40.3087 11.2861 40.6172 11.2948C41.0974 11.2948 41.3233 11.0552 41.3233 10.7556C41.3233 10.441 41.1356 10.2687 40.6479 10.089C39.9948 9.85692 39.6872 9.4974 39.6872 9.06326C39.6872 8.47919 40.1598 7.9999 40.9403 7.9999C41.2525 7.99685 41.5602 8.07421 41.8335 8.22461L41.6684 8.7039C41.4451 8.56642 41.1879 8.49377 40.9255 8.49408C40.535 8.49408 40.3173 8.71871 40.3173 8.98841C40.3173 9.28797 40.535 9.42255 41.0079 9.60235C41.6384 9.84211 41.9611 10.1564 41.9611 10.6957C41.9611 11.3321 41.4657 11.789 40.6026 11.789C40.2461 11.7933 39.8945 11.7055 39.582 11.5341L39.7465 11.0321Z" fill="white"></path>
<path d="M48.864 9.06258C48.864 8.68817 48.8565 8.38093 48.8341 8.08176H49.4117L49.4418 8.6656H49.4641C49.5731 8.45938 49.7377 8.28774 49.9393 8.17001C50.1409 8.05221 50.3715 7.99311 50.605 7.99922C50.8313 7.99679 51.0525 8.06569 51.2372 8.19611C51.4218 8.32661 51.5605 8.5119 51.6333 8.72563H51.6482C51.7487 8.54176 51.8868 8.381 52.0536 8.2538C52.2833 8.07807 52.5675 7.98802 52.8567 7.99922C53.3371 7.99922 54.05 8.31383 54.05 9.57181V11.706H53.4046V9.6541C53.4046 8.95763 53.1495 8.53847 52.6166 8.53847C52.4405 8.54583 52.2709 8.60736 52.1312 8.71458C51.9915 8.8218 51.8883 8.96955 51.8359 9.13743C51.8017 9.24403 51.7839 9.35517 51.7835 9.46702V11.706H51.1381V9.53434C51.1381 8.95763 50.8829 8.53847 50.3799 8.53847C49.9671 8.53847 49.6669 8.86797 49.5618 9.19739C49.5249 9.30078 49.5071 9.41003 49.5094 9.51976V11.706H48.8637L48.864 9.06258Z" fill="white"></path>
<path d="M55.0245 11.0321C55.2862 11.1955 55.5868 11.2862 55.8952 11.2948C56.3753 11.2948 56.6014 11.0553 56.6014 10.7557C56.6014 10.4411 56.4137 10.2687 55.9259 10.0891C55.2721 9.85639 54.9647 9.49687 54.9647 9.06273C54.9647 8.47857 55.4374 7.99929 56.2179 7.99929C56.53 7.99631 56.8377 8.07367 57.1111 8.224L56.946 8.70328C56.7227 8.56589 56.4654 8.49323 56.203 8.49354C55.8126 8.49354 55.5949 8.7181 55.5949 8.98788C55.5949 9.28744 55.8126 9.42201 56.2856 9.60181C56.9154 9.84157 57.2385 10.1564 57.2385 10.6951C57.2385 11.3315 56.7429 11.7885 55.8802 11.7885C55.5236 11.7928 55.1719 11.7049 54.8594 11.5336L55.0245 11.0321Z" fill="white"></path>
<path d="M38.573 8.1265L37.8524 10.2041C37.7624 10.4667 37.6874 10.8092 37.6198 10.9123H37.6048C37.545 10.8092 37.4548 10.4586 37.372 10.2198L36.5766 8.1265H35.8558L37.1996 11.4438C37.2231 11.4947 37.2382 11.5491 37.2445 11.6048C37.2362 11.6582 37.2185 11.7096 37.1921 11.7567C37.0667 12.0403 36.8763 12.2907 36.6364 12.4875C36.4662 12.6304 36.27 12.7391 36.0586 12.808L36.2382 13.3589C36.5353 13.2869 36.8091 13.1408 37.0342 12.9344C37.4847 12.5452 37.8074 11.9308 38.2802 10.6876L39.2709 8.1265H38.573Z" fill="white"></path>
<path d="M48.0236 9.98407C48.0411 9.88703 48.0487 9.78851 48.0462 9.68991C48.0462 9.02189 47.73 7.98526 46.5414 7.98526C45.4804 7.98526 44.8335 8.85212 44.8335 9.94793C44.8335 11.0438 45.5037 11.7886 46.624 11.7886C47.0381 11.7922 47.4477 11.7031 47.8226 11.5277L47.6577 11.0263C47.1036 11.2511 46.6898 11.296 46.3805 11.2374C46.2545 11.2113 46.1334 11.1657 46.0215 11.1022C45.5318 10.8027 45.4727 10.1578 45.4659 10.0229C45.4659 10.0141 45.465 9.98352 45.465 9.98352L48.0236 9.98407ZM46.4886 8.4977C47.2336 8.4977 47.4141 9.15811 47.4066 9.57101H45.473C45.5257 9.15811 45.819 8.4977 46.4886 8.4977Z" fill="white"></path>
<path d="M32.4765 11.0387C32.3558 11.1275 32.2142 11.1837 32.0654 11.202C31.8367 11.1984 31.6791 11.0404 31.6791 10.5978V8.53901H32.61V8.12658H31.6791V6.7962L30.955 7.28813V10.5597C30.955 10.9867 31.0617 11.3084 31.2493 11.503C31.3559 11.6146 31.4905 11.6957 31.6392 11.7378C31.8085 11.7893 31.988 11.7981 32.1616 11.7635C32.3352 11.7289 32.4975 11.652 32.6341 11.5396L32.4765 11.0387Z" fill="white"></path>
<path d="M44.2729 11.0387C44.1516 11.1275 44.0093 11.1837 43.86 11.202C43.6315 11.1984 43.4719 11.0404 43.4719 10.5978V8.53901H44.4032V8.12658H43.4719V6.7962L42.748 7.28813V10.5597C42.748 10.9867 42.8565 11.3084 43.0441 11.503C43.1509 11.6147 43.2859 11.6958 43.4348 11.7379C43.6041 11.7893 43.7837 11.7981 43.9574 11.7635C44.1309 11.7289 44.2933 11.652 44.43 11.5396L44.2729 11.0387Z" fill="white"></path>
</g>
<path d="M33.2511 81.9054H32.0672V78.6684C32.0672 78.5375 32.0698 78.3627 32.075 78.1433C32.0803 77.9185 32.0881 77.7226 32.0985 77.5554C32.0724 77.5868 32.0149 77.6442 31.926 77.7279C31.8424 77.8062 31.764 77.8768 31.6908 77.9395L31.0479 78.4568L30.4755 77.7435L32.2789 76.3092H33.2511V81.9054ZM37.7383 81.9054H36.5543V78.6684C36.5543 78.5375 36.5569 78.3627 36.5621 78.1433C36.5674 77.9185 36.5752 77.7226 36.5857 77.5554C36.5595 77.5868 36.502 77.6442 36.4131 77.7279C36.3295 77.8062 36.2511 77.8768 36.1779 77.9395L35.535 78.4568L34.9626 77.7435L36.766 76.3092H37.7383V81.9054Z" fill="white"></path>
<path d="M19.8589 61.9189L19.3226 60.4658H17.3749L16.8386 61.9189H16.0482L17.9606 56.8611H18.751L20.6563 61.9189H19.8589ZM19.1109 59.8027L18.6028 58.3848C18.584 58.3331 18.5581 58.2555 18.5252 58.152C18.4922 58.0486 18.4593 57.9404 18.4264 57.8276C18.3934 57.7147 18.3676 57.623 18.3487 57.5524C18.3111 57.6982 18.2688 57.8534 18.2217 58.018C18.1747 58.1826 18.137 58.3049 18.1088 58.3848L17.6007 59.8027H19.1109ZM24.2292 60.5575C24.2292 61.0042 24.0669 61.3546 23.7423 61.6085C23.4177 61.8625 22.9731 61.9894 22.4085 61.9894C22.131 61.9894 21.8722 61.9659 21.6323 61.9189C21.3923 61.8766 21.1877 61.8131 21.0183 61.7285V61.0089C21.2065 61.0936 21.4276 61.1712 21.6817 61.2417C21.9357 61.3076 22.1945 61.3405 22.4579 61.3405C22.7967 61.3405 23.0507 61.2746 23.2201 61.143C23.3894 61.0113 23.4741 60.8349 23.4741 60.6139C23.4741 60.4587 23.4365 60.3294 23.3612 60.2259C23.2859 60.1178 23.1636 60.019 22.9942 59.9297C22.8296 59.8356 22.6132 59.7369 22.345 59.6334C22.1004 59.5393 21.8816 59.4288 21.6887 59.3019C21.4958 59.1749 21.3453 59.0173 21.2371 58.8292C21.1289 58.6411 21.0748 58.4107 21.0748 58.1379C21.0748 57.7241 21.2253 57.3996 21.5264 57.1645C21.8275 56.9293 22.2227 56.8118 22.712 56.8118C22.9848 56.8118 23.2365 56.84 23.4671 56.8964C23.7023 56.9529 23.9257 57.0257 24.1374 57.1151L23.8975 57.7429C23.7046 57.663 23.507 57.5971 23.3047 57.5454C23.1072 57.4937 22.9025 57.4678 22.6908 57.4678C22.4132 57.4678 22.2015 57.5289 22.0557 57.6512C21.9098 57.7735 21.8369 57.9334 21.8369 58.1309C21.8369 58.2861 21.8722 58.4177 21.9428 58.5259C22.0133 58.6294 22.1263 58.7258 22.2815 58.8151C22.4368 58.8998 22.6414 58.9915 22.8954 59.0902C23.1777 59.2031 23.4177 59.323 23.6152 59.45C23.8175 59.5723 23.9704 59.7227 24.0739 59.9015C24.1774 60.0755 24.2292 60.2941 24.2292 60.5575ZM28.109 60.5575C28.109 61.0042 27.9467 61.3546 27.6221 61.6085C27.2975 61.8625 26.8529 61.9894 26.2884 61.9894C26.0108 61.9894 25.752 61.9659 25.5121 61.9189C25.2722 61.8766 25.0675 61.8131 24.8982 61.7285V61.0089C25.0864 61.0936 25.3075 61.1712 25.5615 61.2417C25.8156 61.3076 26.0743 61.3405 26.3378 61.3405C26.6765 61.3405 26.9305 61.2746 27.0999 61.143C27.2693 61.0113 27.3539 60.8349 27.3539 60.6139C27.3539 60.4587 27.3163 60.3294 27.241 60.2259C27.1658 60.1178 27.0434 60.019 26.8741 59.9297C26.7094 59.8356 26.493 59.7369 26.2249 59.6334C25.9802 59.5393 25.7615 59.4288 25.5686 59.3019C25.3757 59.1749 25.2251 59.0173 25.1169 58.8292C25.0087 58.6411 24.9546 58.4107 24.9546 58.1379C24.9546 57.7241 25.1052 57.3996 25.4063 57.1645C25.7074 56.9293 26.1025 56.8118 26.5918 56.8118C26.8647 56.8118 27.1164 56.84 27.3469 56.8964C27.5821 56.9529 27.8056 57.0257 28.0173 57.1151L27.7774 57.7429C27.5845 57.663 27.3869 57.5971 27.1846 57.5454C26.987 57.4937 26.7823 57.4678 26.5706 57.4678C26.2931 57.4678 26.0814 57.5289 25.9355 57.6512C25.7897 57.7735 25.7168 57.9334 25.7168 58.1309C25.7168 58.2861 25.752 58.4177 25.8226 58.5259C25.8932 58.6294 26.0061 58.7258 26.1613 58.8151C26.3166 58.8998 26.5212 58.9915 26.7753 59.0902C27.0576 59.2031 27.2975 59.323 27.4951 59.45C27.6974 59.5723 27.8503 59.7227 27.9538 59.9015C28.0573 60.0755 28.109 60.2941 28.109 60.5575ZM33.5414 59.3936C33.5414 59.9156 33.4543 60.3717 33.2803 60.762C33.1062 61.1477 32.8451 61.4486 32.497 61.665C32.1488 61.8813 31.716 61.9894 31.1985 61.9894C30.6669 61.9894 30.227 61.8813 29.8789 61.665C29.5307 61.4486 29.272 61.1453 29.1026 60.755C28.9333 60.3647 28.8486 59.9085 28.8486 59.3865C28.8486 58.8692 28.9333 58.4177 29.1026 58.0321C29.272 57.6418 29.5307 57.3408 29.8789 57.1292C30.227 56.9129 30.6692 56.8047 31.2056 56.8047C31.7231 56.8047 32.1535 56.9129 32.497 57.1292C32.8451 57.3408 33.1062 57.6418 33.2803 58.0321C33.4543 58.4177 33.5414 58.8716 33.5414 59.3936ZM29.6531 59.3936C29.6531 59.9955 29.7777 60.4705 30.0271 60.8185C30.2764 61.1665 30.6669 61.3405 31.1985 61.3405C31.7348 61.3405 32.1253 61.1665 32.3699 60.8185C32.6146 60.4705 32.7369 59.9955 32.7369 59.3936C32.7369 58.7916 32.6146 58.319 32.3699 57.9757C32.1253 57.6324 31.7372 57.4607 31.2056 57.4607C30.6692 57.4607 30.2764 57.6324 30.0271 57.9757C29.7777 58.319 29.6531 58.7916 29.6531 59.3936ZM36.7886 57.4678C36.2899 57.4678 35.8971 57.6418 35.6101 57.9898C35.3278 58.3331 35.1867 58.8057 35.1867 59.4077C35.1867 60.0049 35.3184 60.4752 35.5819 60.8185C35.8453 61.1618 36.2452 61.3334 36.7815 61.3334C36.998 61.3334 37.205 61.3146 37.4025 61.277C37.6048 61.2347 37.8095 61.1806 38.0165 61.1147V61.7708C37.8189 61.846 37.6166 61.9001 37.4096 61.933C37.2026 61.9706 36.9627 61.9894 36.6898 61.9894C36.1723 61.9894 35.7418 61.8836 35.3984 61.672C35.0597 61.4557 34.8056 61.1547 34.6363 60.7691C34.4716 60.3788 34.3893 59.9226 34.3893 59.4006C34.3893 58.8927 34.481 58.446 34.6645 58.0603C34.8527 57.67 35.1255 57.3643 35.4831 57.1433C35.8406 56.9223 36.2782 56.8118 36.7957 56.8118C37.0497 56.8118 37.2967 56.84 37.5366 56.8964C37.7813 56.9482 38.0047 57.0234 38.207 57.1221L37.9247 57.757C37.7601 57.6818 37.5837 57.6159 37.3955 57.5595C37.2073 57.4984 37.005 57.4678 36.7886 57.4678ZM40.6545 61.9189H38.6997V61.4816L39.2996 61.3052V57.5031L38.6997 57.3197V56.8823H40.6545V57.3197L40.0617 57.5031V61.3052L40.6545 61.4816V61.9189ZM44.7369 61.9189L44.2006 60.4658H42.2529L41.7166 61.9189H40.9262L42.8386 56.8611H43.629L45.5343 61.9189H44.7369ZM43.9889 59.8027L43.4808 58.3848C43.462 58.3331 43.4361 58.2555 43.4032 58.152C43.3703 58.0486 43.3373 57.9404 43.3044 57.8276C43.2715 57.7147 43.2456 57.623 43.2268 57.5524C43.1891 57.6982 43.1468 57.8534 43.0997 58.018C43.0527 58.1826 43.0151 58.3049 42.9868 58.3848L42.4787 59.8027H43.9889ZM47.4114 61.9189H46.6493V57.5383H45.1391V56.8823H48.9215V57.5383H47.4114V61.9189ZM52.5309 61.9189H49.694V56.8823H52.5309V57.5313H50.4562V58.9703H52.4038V59.6122H50.4562V61.2629H52.5309V61.9189Z" fill="white"></path>
<path d="M6.65342 46.469C7.26397 46.469 7.71351 46.5797 8.00209 46.8013C8.29479 47.0229 8.44118 47.3594 8.44118 47.8108C8.44118 48.0156 8.40143 48.1954 8.322 48.3501C8.24673 48.5005 8.14424 48.6301 8.01463 48.7388C7.88918 48.8433 7.75324 48.929 7.60688 48.9959L8.92418 50.9459H7.87036L6.80397 49.2279H6.29588V50.9459H5.34869V46.469H6.65342ZM6.58442 47.2465H6.29588V48.4567H6.60324C6.91688 48.4567 7.14061 48.4044 7.27442 48.2999C7.41242 48.1954 7.48142 48.0407 7.48142 47.8359C7.48142 47.6227 7.40824 47.4722 7.26188 47.3844C7.11552 47.2925 6.8897 47.2465 6.58442 47.2465ZM10.8258 47.4597C11.2983 47.4597 11.6726 47.5955 11.9486 47.8672C12.2246 48.1348 12.3626 48.5172 12.3626 49.0147V49.4662H10.1546C10.163 49.7295 10.2403 49.9364 10.3867 50.0869C10.5372 50.2374 10.7442 50.3127 11.0077 50.3127C11.2251 50.3127 11.4238 50.2917 11.6036 50.2499C11.7876 50.2039 11.9758 50.135 12.1681 50.043V50.7641C11.9966 50.8477 11.819 50.9083 11.6349 50.9459C11.4509 50.9877 11.2272 51.0087 10.9638 51.0087C10.6209 51.0087 10.3177 50.9459 10.0542 50.8205C9.79076 50.691 9.58376 50.4986 9.43321 50.2437C9.28267 49.9845 9.20739 49.6564 9.20739 49.2592C9.20739 48.8621 9.27428 48.5298 9.40812 48.2623C9.54612 47.9948 9.73642 47.7941 9.97894 47.6603C10.2215 47.5265 10.5037 47.4597 10.8258 47.4597ZM10.832 48.1243C10.648 48.1243 10.4975 48.1829 10.3804 48.2999C10.2633 48.4169 10.1943 48.5988 10.1734 48.8454H11.4844C11.4802 48.6406 11.4238 48.4692 11.315 48.3312C11.2105 48.1933 11.0495 48.1243 10.832 48.1243ZM14.5256 47.4534C14.9855 47.4534 15.3368 47.5537 15.5794 47.7544C15.8261 47.9509 15.9495 48.2539 15.9495 48.6636V50.9459H15.2971L15.1152 50.4819H15.0901C14.9437 50.6659 14.789 50.7996 14.6259 50.8832C14.4628 50.9669 14.2391 51.0087 13.9547 51.0087C13.6494 51.0087 13.3965 50.9209 13.1957 50.7453C12.995 50.5697 12.8947 50.296 12.8947 49.9239C12.8947 49.5602 13.0222 49.2927 13.2773 49.1213C13.5324 48.9499 13.915 48.8538 14.4252 48.8329L15.0211 48.8141V48.6636C15.0211 48.4838 14.973 48.3522 14.8768 48.2685C14.7848 48.1849 14.6552 48.1431 14.4879 48.1431C14.3206 48.1431 14.1575 48.1682 13.9987 48.2184C13.8397 48.2644 13.6808 48.3229 13.5219 48.3939L13.2146 47.7607C13.3944 47.6687 13.5972 47.5955 13.823 47.5412C14.0488 47.4826 14.283 47.4534 14.5256 47.4534ZM15.0211 49.3596L14.6573 49.3721C14.3562 49.3805 14.1471 49.4348 14.03 49.5351C13.9129 49.6355 13.8544 49.7671 13.8544 49.9302C13.8544 50.0723 13.8962 50.1747 13.9798 50.2374C14.0634 50.296 14.1722 50.3252 14.306 50.3252C14.5067 50.3252 14.6761 50.2666 14.8141 50.1496C14.9521 50.0284 15.0211 49.8591 15.0211 49.6417V49.3596ZM18.2987 51.0087C17.7885 51.0087 17.3933 50.8686 17.1131 50.5885C16.8371 50.3085 16.6991 49.8633 16.6991 49.253C16.6991 48.835 16.7703 48.4943 16.9124 48.2309C17.0546 47.9676 17.2511 47.7732 17.5021 47.6478C17.7571 47.5224 18.0499 47.4597 18.3802 47.4597C18.6144 47.4597 18.8172 47.4826 18.9887 47.5287C19.1643 47.5747 19.317 47.629 19.4466 47.6917L19.1706 48.4128C19.0242 48.3542 18.8862 48.3062 18.7566 48.2685C18.6311 48.2309 18.5057 48.2121 18.3802 48.2121C17.8951 48.2121 17.6526 48.557 17.6526 49.2467C17.6526 49.5895 17.7153 49.8424 17.8408 50.0054C17.9704 50.1684 18.1503 50.2499 18.3802 50.2499C18.5768 50.2499 18.7503 50.2249 18.9009 50.1747C19.0514 50.1204 19.1978 50.0472 19.34 49.9552V50.7516C19.1978 50.8435 19.0473 50.9083 18.8883 50.9459C18.7336 50.9877 18.5371 51.0087 18.2987 51.0087ZM21.571 50.2625C21.6755 50.2625 21.7759 50.2541 21.8721 50.2374C21.9682 50.2165 22.0644 50.1894 22.1607 50.1559V50.8519C22.0603 50.8979 21.9348 50.9355 21.7843 50.9648C21.6379 50.994 21.4769 51.0087 21.3013 51.0087C21.0963 51.0087 20.9124 50.9752 20.7493 50.9083C20.5904 50.8415 20.4628 50.7265 20.3667 50.5635C20.2746 50.4004 20.2287 50.1706 20.2287 49.8737V48.2247H19.7833V47.8296L20.2977 47.5161L20.5674 46.795H21.1633V47.5224H22.123V48.2247H21.1633V49.8737C21.1633 50.0033 21.2009 50.1016 21.2762 50.1684C21.3515 50.2311 21.4497 50.2625 21.571 50.2625ZM23.3185 46.1805C23.4565 46.1805 23.5757 46.214 23.6761 46.2809C23.7764 46.3436 23.8266 46.4627 23.8266 46.6383C23.8266 46.8097 23.7764 46.9288 23.6761 46.9957C23.5757 47.0625 23.4565 47.096 23.3185 47.096C23.1764 47.096 23.0551 47.0625 22.9547 46.9957C22.8586 46.9288 22.8104 46.8097 22.8104 46.6383C22.8104 46.4627 22.8586 46.3436 22.9547 46.2809C23.0551 46.214 23.1764 46.1805 23.3185 46.1805ZM23.7827 47.5224V50.9459H22.8481V47.5224H23.7827ZM25.5747 50.9459L24.27 47.5224H25.2486L25.9072 49.4724C25.9448 49.5895 25.9742 49.7107 25.995 49.8361C26.0159 49.9615 26.0306 50.0744 26.0389 50.1747H26.064C26.0766 49.949 26.1226 49.7149 26.202 49.4724L26.8606 47.5224H27.8392L26.5345 50.9459H25.5747ZM29.7419 47.4597C30.2145 47.4597 30.5888 47.5955 30.8648 47.8672C31.1408 48.1348 31.2788 48.5172 31.2788 49.0147V49.4662H29.0708C29.0792 49.7295 29.1565 49.9364 29.3029 50.0869C29.4534 50.2374 29.6604 50.3127 29.9239 50.3127C30.1413 50.3127 30.34 50.2917 30.5198 50.2499C30.7038 50.2039 30.892 50.135 31.0843 50.043V50.7641C30.9128 50.8477 30.7352 50.9083 30.5511 50.9459C30.3671 50.9877 30.1434 51.0087 29.8799 51.0087C29.5371 51.0087 29.2339 50.9459 28.9704 50.8205C28.7069 50.691 28.4999 50.4986 28.3494 50.2437C28.1989 49.9845 28.1236 49.6564 28.1236 49.2592C28.1236 48.8621 28.1905 48.5298 28.3243 48.2623C28.4623 47.9948 28.6526 47.7941 28.8951 47.6603C29.1376 47.5265 29.4199 47.4597 29.7419 47.4597ZM29.7482 48.1243C29.5642 48.1243 29.4137 48.1829 29.2966 48.2999C29.1795 48.4169 29.1105 48.5988 29.0896 48.8454H30.4006C30.3964 48.6406 30.34 48.4692 30.2312 48.3312C30.1267 48.1933 29.9657 48.1243 29.7482 48.1243ZM37.4548 48.6636C37.4548 49.4202 37.2394 49.9908 36.8087 50.3754C36.378 50.7557 35.7779 50.9459 35.0085 50.9459H33.7414V46.469H35.1465C35.6148 46.469 36.0205 46.5526 36.3634 46.7198C36.7105 46.887 36.9781 47.1336 37.1663 47.4597C37.3586 47.7857 37.4548 48.187 37.4548 48.6636ZM36.47 48.6887C36.47 48.1954 36.3612 47.8317 36.1438 47.5976C35.9264 47.3635 35.6106 47.2465 35.1966 47.2465H34.6885V50.1622H35.0963C36.0121 50.1622 36.47 49.671 36.47 48.6887ZM39.7208 47.4597C40.1933 47.4597 40.5676 47.5955 40.8436 47.8672C41.1196 48.1348 41.2576 48.5172 41.2576 49.0147V49.4662H39.0496C39.0579 49.7295 39.1353 49.9364 39.2817 50.0869C39.4322 50.2374 39.6392 50.3127 39.9027 50.3127C40.1201 50.3127 40.3187 50.2917 40.4986 50.2499C40.6825 50.2039 40.8707 50.135 41.0631 50.043V50.7641C40.8916 50.8477 40.7139 50.9083 40.5299 50.9459C40.3459 50.9877 40.1222 51.0087 39.8588 51.0087C39.5158 51.0087 39.2127 50.9459 38.9492 50.8205C38.6858 50.691 38.4788 50.4986 38.3282 50.2437C38.1777 49.9845 38.1024 49.6564 38.1024 49.2592C38.1024 48.8621 38.1693 48.5298 38.3031 48.2623C38.4411 47.9948 38.6313 47.7941 38.8739 47.6603C39.1165 47.5265 39.3987 47.4597 39.7208 47.4597ZM39.727 48.1243C39.543 48.1243 39.3925 48.1829 39.2754 48.2999C39.1583 48.4169 39.0893 48.5988 39.0684 48.8454H40.3794C40.3752 48.6406 40.3187 48.4692 40.21 48.3312C40.1054 48.1933 39.9445 48.1243 39.727 48.1243ZM42.7084 50.9459L41.4037 47.5224H42.3822L43.0408 49.4724C43.0785 49.5895 43.1077 49.7107 43.1287 49.8361C43.1496 49.9615 43.1642 50.0744 43.1726 50.1747H43.1977C43.2102 49.949 43.2562 49.7149 43.3357 49.4724L43.9943 47.5224H44.9728L43.6681 50.9459H42.7084ZM46.8756 47.4597C47.3481 47.4597 47.7224 47.5955 47.9984 47.8672C48.2744 48.1348 48.4124 48.5172 48.4124 49.0147V49.4662H46.2044C46.2127 49.7295 46.2901 49.9364 46.4365 50.0869C46.587 50.2374 46.794 50.3127 47.0575 50.3127C47.2749 50.3127 47.4735 50.2917 47.6534 50.2499C47.8374 50.2039 48.0255 50.135 48.218 50.043V50.7641C48.0465 50.8477 47.8687 50.9083 47.6848 50.9459C47.5007 50.9877 47.277 51.0087 47.0136 51.0087C46.6706 51.0087 46.3675 50.9459 46.104 50.8205C45.8406 50.691 45.6336 50.4986 45.483 50.2437C45.3325 49.9845 45.2572 49.6564 45.2572 49.2592C45.2572 48.8621 45.3241 48.5298 45.458 48.2623C45.596 47.9948 45.7862 47.7941 46.0288 47.6603C46.2713 47.5265 46.5536 47.4597 46.8756 47.4597ZM46.8819 48.1243C46.6978 48.1243 46.5473 48.1829 46.4302 48.2999C46.3131 48.4169 46.2441 48.5988 46.2232 48.8454H47.5342C47.53 48.6406 47.4735 48.4692 47.3649 48.3312C47.2603 48.1933 47.0993 48.1243 46.8819 48.1243ZM50.1049 50.9459H49.1702V46.1805H50.1049V50.9459ZM54.1927 49.2279C54.1927 49.7964 54.0422 50.2353 53.7411 50.5447C53.4442 50.854 53.0385 51.0087 52.5242 51.0087C52.2064 51.0087 51.922 50.9397 51.6711 50.8017C51.4244 50.6638 51.23 50.4631 51.0877 50.1998C50.9456 49.9323 50.8745 49.6083 50.8745 49.2279C50.8745 48.6594 51.023 48.2225 51.3198 47.9174C51.6168 47.6123 52.0245 47.4597 52.543 47.4597C52.865 47.4597 53.1494 47.5287 53.3961 47.6666C53.6428 47.8045 53.8373 48.0052 53.9795 48.2685C54.1217 48.5319 54.1927 48.8517 54.1927 49.2279ZM51.8279 49.2279C51.8279 49.5665 51.8823 49.8236 51.991 49.9991C52.1039 50.1706 52.2858 50.2562 52.5367 50.2562C52.7835 50.2562 52.9612 50.1706 53.0699 49.9991C53.1828 49.8236 53.2393 49.5665 53.2393 49.2279C53.2393 48.8893 53.1828 48.6364 53.0699 48.4692C52.9612 48.2978 52.7814 48.2121 52.5305 48.2121C52.2838 48.2121 52.1039 48.2978 51.991 48.4692C51.8823 48.6364 51.8279 48.8893 51.8279 49.2279ZM56.8721 47.4597C57.2568 47.4597 57.5684 47.6102 57.8068 47.9111C58.0451 48.208 58.1643 48.6469 58.1643 49.2279C58.1643 49.8131 58.0409 50.2562 57.7942 50.5572C57.5475 50.8582 57.2317 51.0087 56.847 51.0087C56.6003 51.0087 56.4037 50.9648 56.2574 50.877C56.111 50.785 55.9918 50.6826 55.8998 50.5697H55.8497C55.8831 50.7453 55.8998 50.9125 55.8998 51.0714V52.4508H54.9652V47.5224H55.7242L55.8559 47.9676H55.8998C55.9918 47.8296 56.1152 47.7105 56.2699 47.6102C56.4246 47.5098 56.6254 47.4597 56.8721 47.4597ZM56.571 48.2058C56.3284 48.2058 56.157 48.2832 56.0567 48.4378C55.9563 48.5883 55.904 48.8162 55.8998 49.1213V49.2216C55.8998 49.5518 55.9479 49.8069 56.0441 49.9866C56.1445 50.1622 56.3243 50.2499 56.5836 50.2499C56.7968 50.2499 56.9537 50.1622 57.054 49.9866C57.1586 49.8069 57.2108 49.5498 57.2108 49.2154C57.2108 48.5423 56.9976 48.2058 56.571 48.2058ZM60.346 47.4597C60.8185 47.4597 61.1929 47.5955 61.4689 47.8672C61.7449 48.1348 61.8829 48.5172 61.8829 49.0147V49.4662H59.6749C59.6832 49.7295 59.7606 49.9364 59.9069 50.0869C60.0575 50.2374 60.2645 50.3127 60.5279 50.3127C60.7454 50.3127 60.944 50.2917 61.1239 50.2499C61.3078 50.2039 61.496 50.135 61.6884 50.043V50.7641C61.5169 50.8477 61.3392 50.9083 61.1552 50.9459C60.9712 50.9877 60.7475 51.0087 60.484 51.0087C60.1411 51.0087 59.838 50.9459 59.5745 50.8205C59.311 50.691 59.104 50.4986 58.9535 50.2437C58.8029 49.9845 58.7277 49.6564 58.7277 49.2592C58.7277 48.8621 58.7946 48.5298 58.9284 48.2623C59.0664 47.9948 59.2566 47.7941 59.4992 47.6603C59.7417 47.5265 60.024 47.4597 60.346 47.4597ZM60.3523 48.1243C60.1683 48.1243 60.0177 48.1829 59.9007 48.2999C59.7835 48.4169 59.7145 48.5988 59.6937 48.8454H61.0047C61.0004 48.6406 60.944 48.4692 60.8353 48.3312C60.7307 48.1933 60.5697 48.1243 60.3523 48.1243ZM64.5539 47.4597C64.5999 47.4597 64.6542 47.4618 64.7169 47.4659C64.7797 47.4701 64.8299 47.4764 64.8675 47.4848L64.7985 48.3626C64.7651 48.3542 64.7212 48.3479 64.6668 48.3438C64.6124 48.3354 64.5644 48.3312 64.5225 48.3312C64.3636 48.3312 64.211 48.3605 64.0646 48.419C63.9183 48.4733 63.7991 48.5632 63.707 48.6887C63.6192 48.8141 63.5753 48.9855 63.5753 49.2028V50.9459H62.6407V47.5224H63.3495L63.4875 48.0992H63.5314C63.6318 47.9237 63.7698 47.7732 63.9454 47.6478C64.121 47.5224 64.3239 47.4597 64.5539 47.4597Z" fill="white"></path>
<path d="M23.6359 31.3513L22.3107 33.8903L19.4393 34.3319L21.5376 36.319L21.0959 39.1892L23.6359 37.8645L26.1759 39.1892L25.7342 36.319L27.722 34.3319L24.8507 33.8903L23.6359 31.3513Z" fill="white"></path>
<path d="M33.5751 31.3513L32.2498 33.8903L29.3785 34.3319L31.4768 36.319L31.035 39.1892L33.5751 37.8645L36.1151 39.1892L35.6733 36.319L37.6611 34.3319L34.7899 33.8903L33.5751 31.3513Z" fill="#BB1F00"></path>
<path d="M43.5142 31.3513L42.189 33.8903L39.3177 34.3319L41.4159 36.319L40.9742 39.1892L43.5142 37.8645L46.0542 39.1892L45.6125 36.319L47.6004 34.3319L44.729 33.8903L43.5142 31.3513Z" fill="#BB1F00"></path>
</svg>