<svg xmlns="http://www.w3.org/2000/svg" width="62" height="80" viewBox="0 0 69 87" fill="none">
<path fill-rule="evenodd" clip-rule="evenodd" d="M0 20.3784V68.2799C0 70.1303 1.08554 71.8087 2.77354 72.5682L32.5689 85.9741C33.797 86.5266 35.2029 86.5266 36.431 85.9741L66.2264 72.5682C67.9144 71.8087 69 70.1303 69 68.2799V31.0379L0 20.3784Z" fill="#DB2400"></path>
<path fill-rule="evenodd" clip-rule="evenodd" d="M2.77354 72.5682L32.5689 85.9741C33.797 86.5266 35.2029 86.5266 36.431 85.9741L66.2264 72.5682C67.9144 71.8087 69 70.1303 69 68.2799V63.9292L35.8269 73.6777C34.9607 73.9322 34.0393 73.9322 33.1731 73.6777L0 63.9292V68.2799C0 70.1303 1.08554 71.8087 2.77354 72.5682Z" fill="#BB1F00"></path>
<path d="M69 5.64334C69.0067 4.14474 68.3721 2.70571 67.2373 1.64603C66.1024 0.586351 64.5611 -0.00618535 62.9562 4.86975e-05H6.04389C4.43893 -0.00618535 2.89775 0.586351 1.76286 1.64603C0.627968 2.70571 -0.00662437 4.14474 5.2154e-05 5.64334V17.0866L69 27.8244V5.64334Z" fill="#0A141E"></path>
<mask id="mask0_151_2100" style="mask-type:luminance" maskUnits="userSpaceOnUse" x="11" y="5" width="47" height="10">
<path d="M11.7614 5.48645H57.2386V14.3006H11.7614V5.48645Z" fill="white"></path>
</mask>
<g mask="url(#mask0_151_2100)">
<path fill-rule="evenodd" clip-rule="evenodd" d="M14.5486 10.0873C14.5903 10.4897 14.7799 10.8623 15.081 11.1331C15.382 11.4041 15.7731 11.554 16.1785 11.554C16.5838 11.554 16.9749 11.4041 17.2759 11.1331C17.577 10.8623 17.7666 10.4897 17.8083 10.0873C17.8137 10.0323 17.8165 9.97659 17.8165 9.92016C17.8184 9.70438 17.7774 9.49033 17.6959 9.29047C17.6144 9.09052 17.494 8.90868 17.3417 8.75546C17.1895 8.60223 17.0083 8.48058 16.8085 8.39758C16.6089 8.31458 16.3948 8.27186 16.1785 8.27186C15.9621 8.27186 15.748 8.31458 15.5484 8.39758C15.3486 8.48058 15.1674 8.60223 15.0152 8.75546C14.8629 8.90868 14.7425 9.09052 14.661 9.29047C14.5795 9.49033 14.5385 9.70438 14.5404 9.92016C14.5404 9.97636 14.5432 10.0322 14.5486 10.0873ZM11.7614 9.89367C11.7614 9.02202 12.0204 8.16989 12.5058 7.44515C12.9911 6.72038 13.681 6.1555 14.4882 5.82193C15.2953 5.48836 16.1835 5.40108 17.0404 5.57114C17.8973 5.74119 18.6844 6.16093 19.3022 6.77729C19.9199 7.39365 20.3406 8.1789 20.511 9.03385C20.6815 9.88873 20.594 10.7749 20.2596 11.5801C19.9252 12.3855 19.359 13.0737 18.6326 13.558C17.9061 14.0422 17.0521 14.3006 16.1784 14.3006C15.5983 14.3006 15.024 14.1866 14.488 13.9651C13.9521 13.7437 13.4652 13.419 13.055 13.0098C12.6449 12.6006 12.3195 12.1148 12.0976 11.5801C11.8756 11.0454 11.7614 10.4723 11.7614 9.89367Z" fill="white"></path>
<path d="M26.0311 9.86385C26.0311 11.2041 25.1004 11.7882 24.2222 11.7882C23.2391 11.7882 22.481 11.0695 22.481 9.92381C22.481 8.71067 23.2763 7.99939 24.2821 7.99939C25.3256 7.99939 26.0311 8.75558 26.0311 9.86385ZM23.1489 9.90124C23.1489 10.6951 23.6069 11.2942 24.2523 11.2942C24.8828 11.2942 25.3556 10.7025 25.3556 9.88643C25.3556 9.27225 25.0477 8.49349 24.2671 8.49349C23.4866 8.49349 23.1489 9.21253 23.1489 9.90124Z" fill="white"></path>
<path d="M29.9044 10.7175C29.9044 11.0918 29.9117 11.4219 29.9344 11.7058H29.3491L29.3116 11.1144H29.2964C29.174 11.3227 28.9983 11.4949 28.7873 11.6132C28.5764 11.7317 28.3377 11.792 28.0957 11.7883C27.525 11.7883 26.8422 11.4739 26.8422 10.2002V8.08167H27.5027V10.0885C27.5027 10.7774 27.7129 11.2415 28.3134 11.2415C28.5015 11.2384 28.6845 11.1798 28.8394 11.0732C28.9943 10.9666 29.1142 10.8168 29.1841 10.6424C29.2239 10.5346 29.2441 10.4206 29.244 10.3057V8.08167H29.9044V10.7175Z" fill="white"></path>
<path d="M33.2912 11.0321C33.5527 11.1954 33.8532 11.2861 34.1616 11.2947C34.642 11.2947 34.8678 11.0552 34.8678 10.7556C34.8678 10.441 34.6801 10.2687 34.1923 10.089C33.5392 9.85686 33.2315 9.49734 33.2315 9.0632C33.2315 8.47912 33.7045 7.99984 34.485 7.99984C34.7971 7.99686 35.1048 8.07422 35.3781 8.22455L35.2132 8.70383C34.9898 8.56636 34.7324 8.49378 34.4701 8.49401C34.0797 8.49401 33.8619 8.71865 33.8619 8.98835C33.8619 9.28791 34.0797 9.42248 34.5526 9.60236C35.1831 9.84212 35.5056 10.1563 35.5056 10.6957C35.5056 11.3321 35.0102 11.789 34.1473 11.789C33.7907 11.7934 33.439 11.7055 33.1265 11.5341L33.2912 11.0321Z" fill="white"></path>
<path d="M39.7464 11.0321C40.008 11.1954 40.3087 11.2861 40.6171 11.2947C41.0973 11.2947 41.3233 11.0552 41.3233 10.7556C41.3233 10.441 41.1356 10.2687 40.6478 10.089C39.9947 9.85686 39.6871 9.49742 39.6871 9.0632C39.6871 8.47913 40.1598 7.99984 40.9403 7.99984C41.2524 7.99679 41.5601 8.07422 41.8334 8.22455L41.6684 8.70384C41.4451 8.56644 41.1878 8.49378 40.9254 8.4941C40.535 8.4941 40.3172 8.71865 40.3172 8.98835C40.3172 9.28791 40.535 9.42249 41.0079 9.60237C41.6383 9.84213 41.9611 10.1563 41.9611 10.6957C41.9611 11.3321 41.4657 11.789 40.6025 11.789C40.246 11.7933 39.8944 11.7055 39.582 11.5341L39.7464 11.0321Z" fill="white"></path>
<path d="M48.864 9.06265C48.864 8.68816 48.8566 8.38099 48.8342 8.08174H49.4117L49.4418 8.66558H49.4642C49.5731 8.45945 49.7377 8.2878 49.9393 8.17C50.1409 8.05227 50.3715 7.9931 50.605 7.99921C50.8313 7.99678 51.0525 8.06568 51.2372 8.19618C51.4218 8.3266 51.5604 8.51196 51.6333 8.7257H51.6483C51.7488 8.54183 51.8869 8.38099 52.0536 8.25378C52.2834 8.07814 52.5675 7.98808 52.8568 7.99921C53.3371 7.99921 54.0501 8.31382 54.0501 9.57187V11.706H53.4046V9.65409C53.4046 8.9577 53.1495 8.53845 52.6167 8.53845C52.4405 8.5459 52.271 8.60743 52.1313 8.71465C51.9915 8.82187 51.8884 8.96954 51.8359 9.1375C51.8016 9.24402 51.784 9.35516 51.7835 9.467V11.706H51.1381V9.53441C51.1381 8.9577 50.8829 8.53845 50.3799 8.53845C49.9672 8.53845 49.6669 8.86804 49.5618 9.19746C49.5249 9.30084 49.5072 9.4101 49.5094 9.51983V11.706H48.8637L48.864 9.06265Z" fill="white"></path>
<path d="M55.0246 11.032C55.2862 11.1953 55.5868 11.286 55.8953 11.2947C56.3753 11.2947 56.6015 11.0551 56.6015 10.7556C56.6015 10.441 56.4137 10.2687 55.926 10.089C55.2722 9.85625 54.9647 9.49673 54.9647 9.06259C54.9647 8.47852 55.4375 7.99923 56.218 7.99923C56.5301 7.99618 56.8378 8.07361 57.1111 8.22394L56.9461 8.70323C56.7228 8.56575 56.4654 8.49309 56.2031 8.49341C55.8127 8.49341 55.5949 8.71804 55.5949 8.98774C55.5949 9.2873 55.8127 9.42188 56.2856 9.60168C56.9155 9.84144 57.2386 10.1563 57.2386 10.6951C57.2386 11.3314 56.743 11.7884 55.8802 11.7884C55.5236 11.7927 55.172 11.7049 54.8594 11.5335L55.0246 11.032Z" fill="white"></path>
<path d="M38.5729 8.12646L37.8523 10.204C37.7624 10.4668 37.6873 10.8092 37.6197 10.9123H37.6048C37.5449 10.8092 37.4547 10.4586 37.3719 10.2198L36.5765 8.12646H35.8558L37.1995 11.4438C37.223 11.4948 37.2381 11.5492 37.2444 11.6049C37.2361 11.6582 37.2184 11.7096 37.192 11.7567C37.0666 12.0404 36.8763 12.2907 36.6363 12.4876C36.4661 12.6303 36.2699 12.7391 36.0585 12.8081L36.2381 13.3588C36.5352 13.2869 36.8091 13.1409 37.0342 12.9344C37.4846 12.5451 37.8073 11.9308 38.2801 10.6876L39.2709 8.12646H38.5729Z" fill="white"></path>
<path d="M48.0236 9.98404C48.0411 9.887 48.0487 9.78848 48.0462 9.68996C48.0462 9.02194 47.7299 7.98523 46.5413 7.98523C45.4804 7.98523 44.8334 8.85209 44.8334 9.94798C44.8334 11.0438 45.5036 11.7886 46.6241 11.7886C47.0381 11.7922 47.4477 11.703 47.8226 11.5278L47.6577 11.0263C47.1036 11.2511 46.6898 11.296 46.3805 11.2374C46.2544 11.2114 46.1333 11.1657 46.0215 11.1022C45.5317 10.8028 45.4726 10.1577 45.4658 10.0228C45.4658 10.0141 45.4649 9.98357 45.4649 9.98357L48.0236 9.98404ZM46.4886 8.49775C47.2335 8.49775 47.414 9.15816 47.4066 9.57106H45.473C45.5256 9.15816 45.819 8.49775 46.4886 8.49775Z" fill="white"></path>
<path d="M32.4765 11.0387C32.3558 11.1275 32.2142 11.1837 32.0654 11.2019C31.8367 11.1983 31.6791 11.0403 31.6791 10.5977V8.53888H32.61V8.12653H31.6791V6.79614L30.955 7.28807V10.5596C30.955 10.9866 31.0617 11.3084 31.2493 11.5029C31.3559 11.6145 31.4905 11.6956 31.6392 11.7377C31.8085 11.7892 31.988 11.798 32.1616 11.7634C32.3352 11.7289 32.4975 11.6519 32.6341 11.5396L32.4765 11.0387Z" fill="white"></path>
<path d="M44.273 11.0387C44.1515 11.1274 44.0093 11.1836 43.8599 11.2019C43.6314 11.1983 43.4719 11.0403 43.4719 10.5977V8.53888H44.4031V8.12653H43.4719V6.79614L42.748 7.28807V10.5596C42.748 10.9866 42.8564 11.3084 43.0441 11.5029C43.1509 11.6146 43.2858 11.6957 43.4347 11.7377C43.6041 11.7892 43.7836 11.798 43.9573 11.7634C44.131 11.7288 44.2933 11.6519 44.4299 11.5396L44.273 11.0387Z" fill="white"></path>
</g>
<path d="M33.2511 81.9054H32.0672V78.6684C32.0672 78.5375 32.0698 78.3627 32.075 78.1433C32.0803 77.9185 32.0881 77.7226 32.0985 77.5554C32.0724 77.5868 32.0149 77.6442 31.926 77.7279C31.8424 77.8062 31.764 77.8768 31.6908 77.9395L31.0479 78.4568L30.4755 77.7435L32.2789 76.3092H33.2511V81.9054ZM37.7383 81.9054H36.5543V78.6684C36.5543 78.5375 36.5569 78.3627 36.5621 78.1433C36.5674 77.9185 36.5752 77.7226 36.5857 77.5554C36.5595 77.5868 36.502 77.6442 36.4131 77.7279C36.3295 77.8062 36.2511 77.8768 36.1779 77.9395L35.535 78.4568L34.9626 77.7435L36.766 76.3092H37.7383V81.9054Z" fill="white"></path>
<path d="M19.4669 62.2325L18.9306 60.7793H16.9829L16.4466 62.2325H15.6562L17.5686 57.1747H18.359L20.2643 62.2325H19.4669ZM18.7188 60.1163L18.2108 58.6984C18.1919 58.6467 18.1661 58.5691 18.1331 58.4656C18.1002 58.3622 18.0673 58.254 18.0343 58.1411C18.0014 58.0283 17.9755 57.9366 17.9567 57.866C17.9191 58.0118 17.8767 58.167 17.8297 58.3316C17.7826 58.4962 17.745 58.6184 17.7168 58.6984L17.2087 60.1163H18.7188ZM23.8372 60.871C23.8372 61.3178 23.6749 61.6681 23.3502 61.9221C23.0256 62.176 22.581 62.303 22.0165 62.303C21.7389 62.303 21.4802 62.2795 21.2402 62.2325C21.0003 62.1902 20.7957 62.1267 20.6263 62.042V61.3225C20.8145 61.4071 21.0356 61.4847 21.2896 61.5553C21.5437 61.6211 21.8024 61.654 22.0659 61.654C22.4046 61.654 22.6587 61.5882 22.828 61.4565C22.9974 61.3249 23.0821 61.1485 23.0821 60.9275C23.0821 60.7723 23.0444 60.643 22.9692 60.5395C22.8939 60.4313 22.7716 60.3326 22.6022 60.2432C22.4376 60.1492 22.2211 60.0504 21.953 59.947C21.7084 59.8529 21.4896 59.7424 21.2967 59.6154C21.1038 59.4884 20.9533 59.3309 20.8451 59.1428C20.7369 58.9547 20.6828 58.7243 20.6828 58.4515C20.6828 58.0377 20.8333 57.7132 21.1344 57.478C21.4355 57.2429 21.8307 57.1253 22.3199 57.1253C22.5928 57.1253 22.8445 57.1536 23.075 57.21C23.3102 57.2664 23.5337 57.3393 23.7454 57.4287L23.5055 58.0565C23.3126 57.9765 23.115 57.9107 22.9127 57.859C22.7151 57.8072 22.5105 57.7814 22.2988 57.7814C22.0212 57.7814 21.8095 57.8425 21.6637 57.9648C21.5178 58.087 21.4449 58.2469 21.4449 58.4444C21.4449 58.5996 21.4802 58.7313 21.5507 58.8395C21.6213 58.9429 21.7342 59.0393 21.8895 59.1287C22.0447 59.2133 22.2494 59.305 22.5034 59.4038C22.7857 59.5167 23.0256 59.6366 23.2232 59.7636C23.4255 59.8858 23.5784 60.0363 23.6819 60.215C23.7854 60.389 23.8372 60.6077 23.8372 60.871ZM27.717 60.871C27.717 61.3178 27.5547 61.6681 27.2301 61.9221C26.9055 62.176 26.4609 62.303 25.8963 62.303C25.6188 62.303 25.36 62.2795 25.1201 62.2325C24.8802 62.1902 24.6755 62.1267 24.5061 62.042V61.3225C24.6943 61.4071 24.9154 61.4847 25.1695 61.5553C25.4235 61.6211 25.6823 61.654 25.9457 61.654C26.2845 61.654 26.5385 61.5882 26.7079 61.4565C26.8772 61.3249 26.9619 61.1485 26.9619 60.9275C26.9619 60.7723 26.9243 60.643 26.849 60.5395C26.7737 60.4313 26.6514 60.3326 26.4821 60.2432C26.3174 60.1492 26.101 60.0504 25.8328 59.947C25.5882 59.8529 25.3694 59.7424 25.1765 59.6154C24.9837 59.4884 24.8331 59.3309 24.7249 59.1428C24.6167 58.9547 24.5626 58.7243 24.5626 58.4515C24.5626 58.0377 24.7131 57.7132 25.0142 57.478C25.3153 57.2429 25.7105 57.1253 26.1998 57.1253C26.4726 57.1253 26.7243 57.1536 26.9549 57.21C27.1901 57.2664 27.4136 57.3393 27.6253 57.4287L27.3853 58.0565C27.1924 57.9765 26.9948 57.9107 26.7926 57.859C26.595 57.8072 26.3903 57.7814 26.1786 57.7814C25.901 57.7814 25.6893 57.8425 25.5435 57.9648C25.3977 58.087 25.3247 58.2469 25.3247 58.4444C25.3247 58.5996 25.36 58.7313 25.4306 58.8395C25.5012 58.9429 25.6141 59.0393 25.7693 59.1287C25.9246 59.2133 26.1292 59.305 26.3833 59.4038C26.6655 59.5167 26.9055 59.6366 27.1031 59.7636C27.3053 59.8858 27.4582 60.0363 27.5617 60.215C27.6652 60.389 27.717 60.6077 27.717 60.871ZM33.1493 59.7071C33.1493 60.2291 33.0623 60.6853 32.8882 61.0756C32.7142 61.4612 32.4531 61.7622 32.1049 61.9785C31.7568 62.1949 31.324 62.303 30.8065 62.303C30.2749 62.303 29.835 62.1949 29.4868 61.9785C29.1387 61.7622 28.88 61.4589 28.7106 61.0686C28.5412 60.6782 28.4566 60.2221 28.4566 59.7001C28.4566 59.1828 28.5412 58.7313 28.7106 58.3457C28.88 57.9554 29.1387 57.6544 29.4868 57.4428C29.835 57.2264 30.2772 57.1183 30.8135 57.1183C31.331 57.1183 31.7615 57.2264 32.1049 57.4428C32.4531 57.6544 32.7142 57.9554 32.8882 58.3457C33.0623 58.7313 33.1493 59.1851 33.1493 59.7071ZM29.261 59.7071C29.261 60.3091 29.3857 60.784 29.635 61.132C29.8844 61.48 30.2749 61.654 30.8065 61.654C31.3428 61.654 31.7333 61.48 31.9779 61.132C32.2225 60.784 32.3449 60.3091 32.3449 59.7071C32.3449 59.1052 32.2225 58.6326 31.9779 58.2893C31.7333 57.946 31.3451 57.7743 30.8135 57.7743C30.2772 57.7743 29.8844 57.946 29.635 58.2893C29.3857 58.6326 29.261 59.1052 29.261 59.7071ZM36.3966 57.7814C35.8979 57.7814 35.5051 57.9554 35.2181 58.3034C34.9358 58.6467 34.7947 59.1193 34.7947 59.7212C34.7947 60.3185 34.9264 60.7887 35.1899 61.132C35.4533 61.4753 35.8532 61.647 36.3895 61.647C36.6059 61.647 36.8129 61.6282 37.0105 61.5906C37.2128 61.5482 37.4175 61.4942 37.6245 61.4283V62.0843C37.4269 62.1596 37.2246 62.2137 37.0176 62.2466C36.8106 62.2842 36.5706 62.303 36.2978 62.303C35.7803 62.303 35.3498 62.1972 35.0064 61.9856C34.6677 61.7693 34.4136 61.4683 34.2442 61.0827C34.0796 60.6923 33.9973 60.2362 33.9973 59.7142C33.9973 59.2063 34.089 58.7595 34.2725 58.3739C34.4606 57.9836 34.7335 57.6779 35.0911 57.4569C35.4486 57.2359 35.8861 57.1253 36.4036 57.1253C36.6577 57.1253 36.9047 57.1536 37.1446 57.21C37.3892 57.2617 37.6127 57.337 37.815 57.4357L37.5327 58.0706C37.3681 57.9953 37.1916 57.9295 37.0035 57.8731C36.8153 57.8119 36.613 57.7814 36.3966 57.7814ZM40.2625 62.2325H38.3077V61.7951L38.9075 61.6188V57.8166L38.3077 57.6332V57.1959H40.2625V57.6332L39.6697 57.8166V61.6188L40.2625 61.7951V62.2325ZM44.3449 62.2325L43.8086 60.7793H41.8609L41.3246 62.2325H40.5342L42.4466 57.1747H43.237L45.1423 62.2325H44.3449ZM43.5969 60.1163L43.0888 58.6984C43.07 58.6467 43.0441 58.5691 43.0112 58.4656C42.9782 58.3622 42.9453 58.254 42.9124 58.1411C42.8794 58.0283 42.8536 57.9366 42.8347 57.866C42.7971 58.0118 42.7548 58.167 42.7077 58.3316C42.6607 58.4962 42.623 58.6184 42.5948 58.6984L42.0867 60.1163H43.5969ZM47.0194 62.2325H46.2572V57.8519H44.7471V57.1959H48.5295V57.8519H47.0194V62.2325ZM52.1388 62.2325H49.302V57.1959H52.1388V57.8449H50.0641V59.2839H52.0118V59.9258H50.0641V61.5765H52.1388V62.2325Z" fill="white"></path>
<path d="M14.8471 45.4391L13.5627 50.4757H12.349L11.6645 47.8304C11.6503 47.7787 11.6315 47.7011 11.608 47.5977C11.5892 47.4942 11.5657 47.3813 11.5374 47.2591C11.5139 47.1368 11.4904 47.0216 11.4669 46.9134C11.448 46.8052 11.4363 46.7182 11.4316 46.6524C11.4269 46.7182 11.4128 46.8052 11.3892 46.9134C11.3704 47.0216 11.3492 47.1368 11.3257 47.2591C11.3022 47.3766 11.2787 47.4895 11.2552 47.5977C11.2316 47.7011 11.2128 47.7811 11.1987 47.8375L10.5212 50.4757H9.30747L8.02313 45.4391H9.0746L9.71677 48.1902C9.745 48.2984 9.77558 48.4347 9.80851 48.5993C9.84144 48.7639 9.87202 48.9285 9.90025 49.0931C9.92847 49.2577 9.94964 49.3964 9.96376 49.5093C9.97787 49.3917 9.99904 49.253 10.0273 49.0931C10.0555 48.9285 10.0837 48.771 10.112 48.6205C10.1449 48.4653 10.1731 48.3454 10.1966 48.2607L10.9305 45.4391H11.9397L12.6736 48.2607C12.6971 48.3454 12.723 48.4653 12.7512 48.6205C12.7841 48.771 12.8147 48.9285 12.8429 49.0931C12.8712 49.2577 12.8923 49.3964 12.9065 49.5093C12.9206 49.3917 12.9417 49.253 12.97 49.0931C12.9982 48.9285 13.0288 48.7663 13.0617 48.6064C13.0993 48.4418 13.1299 48.3031 13.1534 48.1902L13.7956 45.4391H14.8471ZM16.846 46.5536C17.3777 46.5536 17.7987 46.7065 18.1092 47.0122C18.4197 47.3131 18.575 47.7434 18.575 48.3031V48.8109H16.091C16.1004 49.1072 16.1874 49.34 16.3521 49.5093C16.5214 49.6786 16.7543 49.7632 17.0507 49.7632C17.2953 49.7632 17.5188 49.7397 17.7211 49.6927C17.9281 49.641 18.1398 49.5634 18.3562 49.4599V50.2711C18.1633 50.3652 17.9634 50.4334 17.7564 50.4757C17.5494 50.5227 17.2977 50.5462 17.0013 50.5462C16.6155 50.5462 16.2744 50.4757 15.978 50.3346C15.6817 50.1888 15.4488 49.9725 15.2794 49.6856C15.1101 49.3941 15.0254 49.0249 15.0254 48.5782C15.0254 48.1314 15.1007 47.7575 15.2512 47.4566C15.4064 47.1556 15.6205 46.9299 15.8934 46.7794C16.1662 46.6289 16.4838 46.5536 16.846 46.5536ZM16.8531 47.3014C16.6461 47.3014 16.4767 47.3672 16.345 47.4989C16.2133 47.6306 16.1356 47.8351 16.1121 48.1126H17.587C17.5823 47.8822 17.5188 47.6894 17.3965 47.5342C17.2789 47.379 17.0977 47.3014 16.8531 47.3014ZM20.479 45.1146V46.3632C20.479 46.509 20.4743 46.6524 20.4649 46.7935C20.4555 46.9346 20.4461 47.0451 20.4367 47.125H20.479C20.5825 46.9651 20.7213 46.8311 20.8954 46.7229C21.0695 46.6101 21.2953 46.5536 21.5729 46.5536C22.0057 46.5536 22.3562 46.7229 22.6243 47.0615C22.8925 47.3954 23.0266 47.8892 23.0266 48.5429C23.0266 49.2013 22.8901 49.6998 22.6173 50.0384C22.3444 50.3769 21.9869 50.5462 21.5446 50.5462C21.2624 50.5462 21.0389 50.4969 20.8742 50.3981C20.7143 50.2947 20.5825 50.1794 20.479 50.0525H20.4085L20.2321 50.4757H19.4276V45.1146H20.479ZM21.2341 47.3931C20.9613 47.3931 20.7684 47.4801 20.6555 47.6541C20.5426 47.8234 20.4837 48.0797 20.479 48.423V48.5358C20.479 48.9074 20.5331 49.1942 20.6413 49.3964C20.7543 49.5939 20.9566 49.6927 21.2482 49.6927C21.4646 49.6927 21.6364 49.5939 21.7634 49.3964C21.8904 49.1942 21.9539 48.905 21.9539 48.5288C21.9539 48.1526 21.8881 47.8704 21.7563 47.6823C21.6293 47.4895 21.4552 47.3931 21.2341 47.3931ZM29.9887 47.908C29.9887 48.7592 29.7464 49.4011 29.2618 49.8338C28.7772 50.2617 28.1021 50.4757 27.2365 50.4757H25.811V45.4391H27.3917C27.9187 45.4391 28.375 45.5332 28.7608 45.7213C29.1512 45.9094 29.4523 46.1868 29.664 46.5536C29.8805 46.9205 29.9887 47.3719 29.9887 47.908ZM28.8807 47.9362C28.8807 47.3813 28.7584 46.9722 28.5138 46.7088C28.2691 46.4455 27.914 46.3138 27.4482 46.3138H26.8766V49.5939H27.3353C28.3656 49.5939 28.8807 49.0414 28.8807 47.9362ZM32.5378 46.5536C33.0694 46.5536 33.4905 46.7065 33.801 47.0122C34.1115 47.3131 34.2667 47.7434 34.2667 48.3031V48.8109H31.7827C31.7921 49.1072 31.8792 49.34 32.0438 49.5093C32.2132 49.6786 32.4461 49.7632 32.7425 49.7632C32.9871 49.7632 33.2106 49.7397 33.4129 49.6927C33.6199 49.641 33.8316 49.5634 34.048 49.4599V50.2711C33.8551 50.3652 33.6551 50.4334 33.4481 50.4757C33.2411 50.5227 32.9894 50.5462 32.6931 50.5462C32.3073 50.5462 31.9662 50.4757 31.6698 50.3346C31.3734 50.1888 31.1406 49.9725 30.9712 49.6856C30.8018 49.3941 30.7172 49.0249 30.7172 48.5782C30.7172 48.1314 30.7924 47.7575 30.943 47.4566C31.0982 47.1556 31.3123 46.9299 31.5851 46.7794C31.858 46.6289 32.1756 46.5536 32.5378 46.5536ZM32.5449 47.3014C32.3379 47.3014 32.1685 47.3672 32.0368 47.4989C31.9051 47.6306 31.8274 47.8351 31.8039 48.1126H33.2788C33.2741 47.8822 33.2106 47.6894 33.0882 47.5342C32.9706 47.379 32.7895 47.3014 32.5449 47.3014ZM35.8989 50.4757L34.4311 46.6242H35.5319L36.2729 48.818C36.3153 48.9497 36.3482 49.0861 36.3717 49.2271C36.3952 49.3682 36.4117 49.4952 36.4211 49.6081H36.4493C36.4634 49.3541 36.5152 49.0908 36.6046 48.818L37.3455 46.6242H38.4464L36.9786 50.4757H35.8989ZM40.587 46.5536C41.1186 46.5536 41.5396 46.7065 41.8501 47.0122C42.1606 47.3131 42.3159 47.7434 42.3159 48.3031V48.8109H39.8319C39.8413 49.1072 39.9283 49.34 40.093 49.5093C40.2624 49.6786 40.4952 49.7632 40.7916 49.7632C41.0363 49.7632 41.2597 49.7397 41.462 49.6927C41.669 49.641 41.8807 49.5634 42.0971 49.4599V50.2711C41.9042 50.3652 41.7043 50.4334 41.4973 50.4757C41.2903 50.5227 41.0386 50.5462 40.7422 50.5462C40.3565 50.5462 40.0154 50.4757 39.719 50.3346C39.4226 50.1888 39.1897 49.9725 39.0204 49.6856C38.851 49.3941 38.7663 49.0249 38.7663 48.5782C38.7663 48.1314 38.8416 47.7575 38.9921 47.4566C39.1474 47.1556 39.3614 46.9299 39.6343 46.7794C39.9072 46.6289 40.2247 46.5536 40.587 46.5536ZM40.594 47.3014C40.387 47.3014 40.2177 47.3672 40.0859 47.4989C39.9542 47.6306 39.8766 47.8351 39.8531 48.1126H41.3279C41.3232 47.8822 41.2597 47.6894 41.1374 47.5342C41.0198 47.379 40.8387 47.3014 40.594 47.3014ZM44.22 50.4757H43.1685V45.1146H44.22V50.4757ZM48.8188 48.5429C48.8188 49.1825 48.6495 49.6762 48.3107 50.0242C47.9767 50.3722 47.5204 50.5462 46.9417 50.5462C46.5842 50.5462 46.2643 50.4687 45.982 50.3135C45.7044 50.1583 45.4857 49.9325 45.3257 49.6363C45.1658 49.3353 45.0858 48.9708 45.0858 48.5429C45.0858 47.9033 45.2528 47.4119 45.5868 47.0686C45.9208 46.7253 46.3795 46.5536 46.9629 46.5536C47.3251 46.5536 47.645 46.6312 47.9226 46.7864C48.2002 46.9416 48.4189 47.1674 48.5789 47.4636C48.7389 47.7599 48.8188 48.1196 48.8188 48.5429ZM46.1584 48.5429C46.1584 48.9238 46.2196 49.213 46.3419 49.4105C46.4689 49.6034 46.6736 49.6998 46.9558 49.6998C47.2334 49.6998 47.4333 49.6034 47.5557 49.4105C47.6827 49.213 47.7462 48.9238 47.7462 48.5429C47.7462 48.162 47.6827 47.8775 47.5557 47.6894C47.4333 47.4965 47.231 47.4001 46.9488 47.4001C46.6712 47.4001 46.4689 47.4965 46.3419 47.6894C46.2196 47.8775 46.1584 48.162 46.1584 48.5429ZM51.8331 46.5536C52.2659 46.5536 52.6164 46.7229 52.8846 47.0615C53.1527 47.3954 53.2868 47.8892 53.2868 48.5429C53.2868 49.2013 53.148 49.6998 52.8705 50.0384C52.5929 50.3769 52.2377 50.5462 51.8049 50.5462C51.5273 50.5462 51.3062 50.4969 51.1415 50.3981C50.9769 50.2947 50.8428 50.1794 50.7393 50.0525H50.6828C50.7205 50.25 50.7393 50.4381 50.7393 50.6168V52.1687H49.6878V46.6242H50.5417L50.6899 47.125H50.7393C50.8428 46.9698 50.9816 46.8358 51.1557 46.7229C51.3297 46.6101 51.5555 46.5536 51.8331 46.5536ZM51.4944 47.3931C51.2215 47.3931 51.0286 47.4801 50.9157 47.6541C50.8028 47.8234 50.744 48.0797 50.7393 48.423V48.5358C50.7393 48.9074 50.7934 49.1942 50.9016 49.3964C51.0145 49.5939 51.2168 49.6927 51.5085 49.6927C51.7484 49.6927 51.9249 49.5939 52.0378 49.3964C52.1554 49.1942 52.2142 48.905 52.2142 48.5288C52.2142 47.7717 51.9743 47.3931 51.4944 47.3931ZM55.7413 46.5536C56.2729 46.5536 56.6939 46.7065 57.0044 47.0122C57.3149 47.3131 57.4702 47.7434 57.4702 48.3031V48.8109H54.9862C54.9956 49.1072 55.0826 49.34 55.2473 49.5093C55.4166 49.6786 55.6495 49.7632 55.9459 49.7632C56.1905 49.7632 56.414 49.7397 56.6163 49.6927C56.8233 49.641 57.035 49.5634 57.2514 49.4599V50.2711C57.0585 50.3652 56.8586 50.4334 56.6516 50.4757C56.4446 50.5227 56.1929 50.5462 55.8965 50.5462C55.5107 50.5462 55.1697 50.4757 54.8733 50.3346C54.5769 50.1888 54.344 49.9725 54.1746 49.6856C54.0053 49.3941 53.9206 49.0249 53.9206 48.5782C53.9206 48.1314 53.9959 47.7575 54.1464 47.4566C54.3017 47.1556 54.5157 46.9299 54.7886 46.7794C55.0614 46.6289 55.379 46.5536 55.7413 46.5536ZM55.7483 47.3014C55.5413 47.3014 55.372 47.3672 55.2402 47.4989C55.1085 47.6306 55.0309 47.8351 55.0073 48.1126H56.4822C56.4775 47.8822 56.414 47.6894 56.2917 47.5342C56.1741 47.379 55.9929 47.3014 55.7483 47.3014ZM60.4751 46.5536C60.5269 46.5536 60.588 46.556 60.6586 46.5607C60.7292 46.5654 60.7856 46.5725 60.828 46.5819L60.7503 47.5694C60.7127 47.56 60.6633 47.553 60.6022 47.5483C60.541 47.5389 60.4869 47.5342 60.4398 47.5342C60.2611 47.5342 60.0894 47.5671 59.9247 47.6329C59.76 47.6941 59.626 47.7952 59.5225 47.9362C59.4237 48.0773 59.3743 48.2701 59.3743 48.5147V50.4757H58.3228V46.6242H59.1202L59.2755 47.2732H59.3249C59.4378 47.0756 59.593 46.9064 59.7906 46.7653C59.9882 46.6242 60.2164 46.5536 60.4751 46.5536Z" fill="white"></path>
<path d="M23.6359 31.3513L22.3107 33.8903L19.4393 34.3319L21.5376 36.3189L21.0959 39.1892L23.6359 37.8645L26.1759 39.1892L25.7342 36.3189L27.722 34.3319L24.8507 33.8903L23.6359 31.3513Z" fill="white"></path>
<path d="M33.5751 31.3513L32.2498 33.8903L29.3785 34.3319L31.4768 36.3189L31.035 39.1892L33.5751 37.8645L36.1151 39.1892L35.6733 36.3189L37.6611 34.3319L34.7899 33.8903L33.5751 31.3513Z" fill="#BB1F00"></path>
<path d="M43.5143 31.3513L42.189 33.8903L39.3177 34.3319L41.416 36.3189L40.9742 39.1892L43.5143 37.8645L46.0543 39.1892L45.6125 36.3189L47.6004 34.3319L44.7291 33.8903L43.5143 31.3513Z" fill="#BB1F00"></path>
</svg>